<svg width="52" height="45" viewBox="0 0 52 45" fill="none" xmlns="http://www.w3.org/2000/svg">
<path d="M44.1021 22.0493C44.1021 9.89106 34.2092 0 22.051 0C9.89284 0 0 9.89106 0 22.0493C0 34.2076 9.89284 44.0996 22.0509 44.0996C23.5391 44.0996 24.7462 42.8932 24.7462 41.4043C24.7462 39.9155 23.539 38.7091 22.0509 38.7091C12.8633 38.7091 5.39043 31.236 5.39043 22.0493C5.39043 12.8635 12.8633 5.39043 22.0509 5.39043C31.2385 5.39043 38.7117 12.8635 38.7117 22.0493C38.7117 23.5382 39.9191 24.7446 41.4068 24.7446C42.895 24.7446 44.1021 23.5382 44.1021 22.0493Z" fill="url(#paint0_linear_180_1731)"/>
<path d="M36.7729 38.9033H32.4843V38.8569L33.8934 37.6803C36.1045 35.7063 37.9607 33.6613 37.9607 31.0994C37.9607 28.3261 36.0552 26.3037 32.6002 26.3037C31.0788 26.3037 29.7103 26.6855 28.6346 27.2329C28.0223 27.5444 27.7469 28.2673 27.9995 28.9068L28.0346 28.9937C28.1663 29.3307 28.4365 29.5965 28.7733 29.7272C29.1119 29.8588 29.4893 29.843 29.8137 29.6833C30.4245 29.3859 31.1211 29.1719 31.872 29.1719C33.6337 29.1719 34.3863 30.1581 34.3863 31.4047C34.3409 33.1909 32.7177 34.9071 29.3802 37.8919L27.6694 39.4403C27.5028 39.5921 27.4063 39.8079 27.4063 40.0353V41.0389C27.4063 41.4819 27.766 41.8417 28.2099 41.8417H36.7729C37.5837 41.8417 38.2414 41.1836 38.2414 40.373C38.2414 39.5613 37.5837 38.9033 36.7729 38.9033Z" fill="url(#paint1_linear_180_1731)"/>
<path d="M50.6612 35.5174H50.1663V27.3642C50.1663 26.9211 49.8065 26.5615 49.3627 26.5615H46.2409C45.9637 26.5615 45.7057 26.7045 45.5602 26.9406L40.1328 35.6755C40.0538 35.8026 40.012 35.9492 40.012 36.0991V37.3941C40.012 37.8371 40.3716 38.1969 40.8156 38.1969H46.7816V40.149C46.7816 41.0833 47.5395 41.8405 48.4731 41.8405C49.4084 41.8405 50.1663 41.0824 50.1663 40.1472V38.1969H50.6593C51.3999 38.1969 52 37.5968 52 36.8572C52 36.1175 51.3999 35.5174 50.6612 35.5174ZM46.7816 32.1336V35.5174H43.3492V35.4709L45.3952 32.1335C45.9111 31.1694 46.3112 30.2752 46.806 29.2892H46.8991C46.8289 30.2754 46.7816 31.2168 46.7816 32.1336Z" fill="url(#paint2_linear_180_1731)"/>
<path d="M22.051 8.16113C20.976 8.16113 20.1048 9.03252 20.1048 10.1074V20.8499C20.1048 22.614 21.54 24.0492 23.3041 24.0492H31.1106C32.1856 24.0492 33.0569 23.1778 33.0569 22.103C33.0569 21.0281 32.1856 20.1567 31.1106 20.1567H23.9972V10.1074C23.9972 9.03252 23.1258 8.16113 22.051 8.16113Z" fill="url(#paint3_linear_180_1731)"/>
<defs>
<linearGradient id="paint0_linear_180_1731" x1="16.1142" y1="0.0498062" x2="54.2007" y2="41.9548" gradientUnits="userSpaceOnUse">
<stop stop-color="#FE5104"/>
<stop offset="1" stop-color="#FF8C46"/>
</linearGradient>
<linearGradient id="paint1_linear_180_1731" x1="31.3653" y1="26.3213" x2="44.386" y2="36.3108" gradientUnits="userSpaceOnUse">
<stop stop-color="#FE5104"/>
<stop offset="1" stop-color="#FF8C46"/>
</linearGradient>
<linearGradient id="paint2_linear_180_1731" x1="44.3922" y1="26.5788" x2="57.506" y2="37.899" gradientUnits="userSpaceOnUse">
<stop stop-color="#FE5104"/>
<stop offset="1" stop-color="#FF8C46"/>
</linearGradient>
<linearGradient id="paint3_linear_180_1731" x1="24.8373" y1="8.17908" x2="38.5404" y2="20.4693" gradientUnits="userSpaceOnUse">
<stop stop-color="#FE5104"/>
<stop offset="1" stop-color="#FF8C46"/>
</linearGradient>
</defs>
</svg>
