<svg width="137" height="24" viewBox="0 0 137 24" fill="none" xmlns="http://www.w3.org/2000/svg">
<path d="M11.6908 0L14.3155 8.07814H22.8094L15.9377 13.0707L18.5625 21.1489L11.6908 16.1563L4.81912 21.1489L7.44387 13.0707L0.572188 8.07814H9.06605L11.6908 0Z" fill="#FF7A00"/>
<path d="M39.8861 0L42.5109 8.07814H51.0047L44.133 13.0707L46.7578 21.1489L39.8861 16.1563L33.0144 21.1489L35.6392 13.0707L28.7675 8.07814H37.2614L39.8861 0Z" fill="#FF7A00"/>
<path d="M68.4253 0L71.1272 8.07814H79.8709L72.7971 13.0707L75.4991 21.1489L68.4253 16.1563L61.3515 21.1489L64.0534 13.0707L56.9796 8.07814H65.7233L68.4253 0Z" fill="#FF7A00"/>
<path d="M96.9642 0L99.589 8.07814H108.083L101.211 13.0707L103.836 21.1489L96.9642 16.1563L90.0926 21.1489L92.7173 13.0707L85.8456 8.07814H94.3395L96.9642 0Z" fill="#FF7A00"/>
<path d="M125.161 0L127.785 8.07814H136.279L129.407 13.0707L132.032 21.1489L125.161 16.1563L118.289 21.1489L120.914 13.0707L114.042 8.07814H122.536L125.161 0Z" fill="#B7B7B7"/>
<path d="M125.16 0V16.1563L118.288 21.1489L120.913 13.0707L114.042 8.07814H122.535L125.16 0Z" fill="#FF7A00"/>
</svg>
