<svg width="47" height="56" viewBox="0 0 47 56" fill="none" xmlns="http://www.w3.org/2000/svg">
<g opacity="0.8">
<path d="M39.1239 29.5929C39.099 25.0045 41.1628 21.5414 45.34 18.991C43.0027 15.6278 39.472 13.7775 34.81 13.4149C30.3965 13.0649 25.5729 16.0029 23.8075 16.0029C21.9427 16.0029 17.666 13.54 14.3094 13.54C7.37225 13.6525 0 19.1035 0 30.193C0 33.4686 0.596742 36.8525 1.79023 40.3448C3.38154 44.9332 9.12518 56.1852 15.1175 55.9977C18.2504 55.9227 20.4633 53.7598 24.541 53.7598C28.4944 53.7598 30.5457 55.9977 34.0392 55.9977C40.0812 55.9102 45.2778 45.6833 46.7945 41.0825C38.6888 37.2443 39.1239 29.8304 39.1239 29.5929ZM32.0873 9.06415C35.4813 5.01341 35.1705 1.32524 35.071 0C32.0749 0.175032 28.6063 2.05037 26.6296 4.36329C24.454 6.83874 23.1735 9.9018 23.447 13.3524C26.6918 13.6025 29.6506 11.9272 32.0873 9.06415Z" fill="#737373"/>
</g>
</svg>
