<svg width="37" height="44" viewBox="0 0 37 44" fill="none" xmlns="http://www.w3.org/2000/svg">
<path d="M23.2528 34.8028H2.75109V5.39829H23.2472V7.59801H26.002V4.79781C26.0039 2.16007 23.8381 0 21.2022 0H4.79973C2.16007 0 0 2.16007 0 4.79781V39.2003C0 41.8419 2.16007 44 4.79973 44H21.2022C23.8381 44 26.0039 41.8419 26.0039 39.2003V34.7517H23.2528V34.8028ZM12.9981 41.5983C11.7821 41.5983 10.8003 40.6146 10.8003 39.4005C10.8003 38.1826 11.7822 37.2007 12.9981 37.2007C14.216 37.2007 15.1998 38.1844 15.1998 39.4005C15.1998 40.6146 14.2161 41.5983 12.9981 41.5983Z" fill="url(#paint0_linear_188_1807)"/>
<path d="M33.0769 19.5988C32.8598 18.4621 32.4198 17.4104 31.7968 16.4909L34.0022 14.2836L31.7496 12.0386L29.5479 14.242C28.6322 13.6152 27.5748 13.1809 26.4419 12.9619V9.83691H23.2547V12.9619C22.1199 13.1809 21.072 13.6171 20.1468 14.242L17.949 12.0386L15.6964 14.2855L17.8981 16.4927C17.2769 17.4122 16.8388 18.464 16.6217 19.5988H13.5005V22.7841H16.6216C16.8388 23.9151 17.2787 24.9668 17.8998 25.8901L15.6964 28.0936L17.9489 30.3368L20.1524 28.1351C21.0739 28.7619 22.1255 29.1981 23.2603 29.4191V32.5383H26.4475V29.4172C27.5804 29.2001 28.6302 28.7601 29.5535 28.137L31.7552 30.3387L34.0078 28.0936L31.8024 25.8901C32.4254 24.9706 32.8635 23.9171 33.0825 22.7823H36.2056V19.5988H33.0769ZM24.8521 24.6572C22.9357 24.6572 21.3797 23.1089 21.3797 21.1906C21.3797 19.2741 22.9356 17.7163 24.8521 17.7163C26.7705 17.7163 28.3188 19.2722 28.3188 21.1906C28.3188 23.1108 26.7666 24.6572 24.8521 24.6572Z" fill="url(#paint1_linear_188_1807)"/>
<defs>
<linearGradient id="paint0_linear_188_1807" x1="9.50141" y1="0.0496938" x2="44.3927" y2="22.7365" gradientUnits="userSpaceOnUse">
<stop stop-color="#FE5104"/>
<stop offset="1" stop-color="#FF8C46"/>
</linearGradient>
<linearGradient id="paint1_linear_188_1807" x1="21.7966" y1="9.86255" x2="41.4024" y2="31.4363" gradientUnits="userSpaceOnUse">
<stop stop-color="#FE5104"/>
<stop offset="1" stop-color="#FF8C46"/>
</linearGradient>
</defs>
</svg>
