<svg width="48" height="45" viewBox="0 0 48 45" fill="none" xmlns="http://www.w3.org/2000/svg">
<path d="M32.5696 1.48111C32.1087 1.00424 31.555 0.62685 30.9426 0.372202C30.3303 0.117555 29.6722 -0.00894929 29.0091 0.000492106H5.04159C4.37847 -0.0088843 3.72046 0.117649 3.10811 0.372293C2.49576 0.626936 1.94204 1.00429 1.4811 1.48111C1.00423 1.94215 0.626832 2.49597 0.372188 3.10845C0.117543 3.72092 -0.00895442 4.37906 0.000492704 5.0423V39.3231C-0.00894647 39.9861 0.117561 40.644 0.372211 41.2562C0.62686 41.8685 1.00425 42.422 1.4811 42.8828C1.94194 43.3597 2.49563 43.7372 3.108 43.9918C3.72037 44.2465 4.37842 44.3729 5.04156 44.3634H27.1377C26.2479 43.46 25.7533 42.2401 25.7628 40.9721V37.2877H5.04159C4.51281 37.2841 4.00674 37.0723 3.6329 36.6984C3.25906 36.3244 3.04754 35.8182 3.04413 35.2895V5.0423C3.04721 4.51342 3.25862 4.00707 3.63253 3.63302C4.00644 3.25897 4.51271 3.04737 5.04158 3.04408H29.0091C29.538 3.0475 30.0443 3.25912 30.4183 3.63312C30.7923 4.00712 31.0039 4.51339 31.0073 5.04229V13.0198H34.0509V5.0423C34.06 4.37904 33.9333 3.72093 33.6786 3.10848C33.4238 2.49604 33.0464 1.94221 32.5696 1.48111ZM15.6071 39.5323C15.9342 39.214 16.3613 39.0186 16.8161 38.9792C17.2708 38.9399 17.7252 39.0591 18.1021 39.3165C18.479 39.5739 18.7553 39.9538 18.8841 40.3917C19.0129 40.8296 18.9863 41.2985 18.8088 41.719C18.6313 42.1395 18.3138 42.4857 17.9102 42.6989C17.5066 42.912 17.0417 42.979 16.5943 42.8885C16.1469 42.798 15.7446 42.5556 15.4556 42.2023C15.1666 41.849 15.0086 41.4066 15.0085 40.9502C15.0064 40.6855 15.0584 40.4232 15.1613 40.1794C15.2642 39.9356 15.4159 39.7153 15.6071 39.5323L15.6071 39.5323Z" fill="url(#paint0_linear_187_1774)"/>
<path d="M46.2282 15.5113C45.9181 15.1904 45.5456 14.9364 45.1336 14.7651C44.7215 14.5937 44.2788 14.5086 43.8326 14.515H30.6493C29.7504 14.5175 28.8891 14.8757 28.2535 15.5113C27.618 16.1469 27.2598 17.0082 27.2572 17.9071V40.9728C27.2598 41.8716 27.618 42.7328 28.2536 43.3683C28.8892 44.0038 29.7505 44.362 30.6493 44.3644H43.8325C44.7313 44.3619 45.5926 44.0038 46.2282 43.3683C46.8638 42.7328 47.2221 41.8716 47.2248 40.9728V17.9071C47.231 17.4609 47.1458 17.0181 46.9744 16.6061C46.803 16.1941 46.549 15.8215 46.2282 15.5113ZM38.195 43.0215C37.9748 43.2355 37.6875 43.3667 37.3816 43.393C37.0758 43.4194 36.7702 43.3391 36.5168 43.1658C36.2633 42.9926 36.0776 42.737 35.9911 42.4425C35.9046 42.1479 35.9226 41.8325 36.0421 41.5497C36.1616 41.2669 36.3752 41.0342 36.6467 40.8909C36.9182 40.7476 37.2309 40.7026 37.5318 40.7636C37.8326 40.8246 38.1032 40.9877 38.2975 41.2253C38.4918 41.463 38.598 41.7605 38.598 42.0675C38.5995 42.2456 38.5646 42.4222 38.4953 42.5862C38.4259 42.7503 38.3237 42.8984 38.195 43.0215ZM45.177 38.2589C45.1747 38.6148 45.0323 38.9554 44.7807 39.2071C44.529 39.4588 44.1884 39.6012 43.8325 39.6035H30.6493C30.2934 39.6011 29.9529 39.4586 29.7013 39.207C29.4497 38.9553 29.3073 38.6147 29.3049 38.2589V17.9071C29.3073 17.5513 29.4498 17.2108 29.7014 16.9592C29.9529 16.7076 30.2935 16.5651 30.6493 16.5627H43.8325C44.1883 16.565 44.5289 16.7074 44.7806 16.9591C45.0322 17.2107 45.1746 17.5513 45.1769 17.9071L45.177 38.2589Z" fill="url(#paint1_linear_187_1774)"/>
<defs>
<linearGradient id="paint0_linear_187_1774" x1="12.4418" y1="0.0501048" x2="50.388" y2="32.0938" gradientUnits="userSpaceOnUse">
<stop stop-color="#FE5104"/>
<stop offset="1" stop-color="#FF8C46"/>
</linearGradient>
<linearGradient id="paint1_linear_187_1774" x1="34.5532" y1="14.5484" x2="59.2796" y2="32.7464" gradientUnits="userSpaceOnUse">
<stop stop-color="#FE5104"/>
<stop offset="1" stop-color="#FF8C46"/>
</linearGradient>
</defs>
</svg>
