<svg width="24" height="24" viewBox="0 0 24 24" fill="none" xmlns="http://www.w3.org/2000/svg">
<path fill-rule="evenodd" clip-rule="evenodd" d="M19.1424 4.58097C17.2094 2.64791 14.6409 1.58105 11.9052 1.58105C6.26656 1.58105 1.67472 6.16955 1.67472 11.8082C1.67138 13.6108 2.14294 15.3699 3.03923 16.9217L1.58777 22.2226L7.01236 20.7979C8.50395 21.6139 10.1895 22.042 11.9018 22.0453H11.9052C17.5438 22.0453 22.1323 17.4568 22.1357 11.8149C22.1357 9.08251 21.0721 6.51402 19.1424 4.58097ZM11.9052 20.3163H11.9018C10.3768 20.3163 8.87852 19.9049 7.57421 19.1324L7.26319 18.9484L4.04255 19.7912L4.90205 16.6542L4.70139 16.3331C3.84857 14.9787 3.40042 13.4135 3.40042 11.8082C3.40042 7.1227 7.21636 3.3101 11.9085 3.3101C14.1794 3.3101 16.3131 4.19636 17.9184 5.80167C19.5237 7.41031 20.4066 9.54403 20.4066 11.8149C20.4066 16.5037 16.5907 20.3163 11.9052 20.3163ZM16.5673 13.9486C16.3131 13.8215 15.0556 13.2028 14.8215 13.1192C14.5874 13.0322 14.4168 12.9921 14.2463 13.2463C14.0757 13.5038 13.5874 14.079 13.4369 14.2496C13.2898 14.4168 13.1393 14.4402 12.8851 14.3131C12.6276 14.186 11.8049 13.9151 10.8283 13.0423C10.0691 12.3667 9.55409 11.5273 9.40694 11.2731C9.25644 11.0156 9.39021 10.8784 9.5173 10.7514C9.63435 10.6376 9.77482 10.4537 9.9019 10.3032C10.029 10.1561 10.0725 10.049 10.1594 9.87847C10.243 9.70791 10.1996 9.55741 10.136 9.43032C10.0725 9.30323 9.56078 8.0424 9.34674 7.53071C9.13938 7.0324 8.92869 7.10263 8.7715 7.0926C8.62435 7.08591 8.45379 7.08591 8.28322 7.08591C8.11266 7.08591 7.83508 7.14945 7.60097 7.40697C7.36686 7.66114 6.70802 8.27985 6.70802 9.53734C6.70802 10.7948 7.62438 12.0122 7.75147 12.1827C7.87855 12.35 9.55409 14.9318 12.1192 16.0388C12.7279 16.303 13.2028 16.4602 13.574 16.5773C14.1861 16.7712 14.7446 16.7445 15.186 16.6809C15.6777 16.6074 16.6977 16.0622 16.9117 15.4636C17.1224 14.8683 17.1224 14.3566 17.0589 14.2496C16.9953 14.1426 16.8248 14.079 16.5673 13.9486Z" fill="black" stroke="white" stroke-width="0.3"/>
</svg>
