<svg width="168" height="55" viewBox="0 0 168 55" fill="none" xmlns="http://www.w3.org/2000/svg">
<g clip-path="url(#clip0_724_1184)">
<path d="M20.6373 0.00488281H22.1274C27.3008 0.117348 32.3899 2.19796 36.045 5.8812C34.6954 7.25891 33.3177 8.58037 31.9963 9.95808C29.9438 8.1024 27.4695 6.66846 24.7704 6.16237C20.7778 5.31888 16.476 6.07802 13.1302 8.35544C9.47506 10.7453 7.00082 14.7941 6.46661 19.124C5.87616 23.3977 7.08517 27.8963 9.86869 31.2141C12.5397 34.4474 16.6166 36.4718 20.8341 36.6124C24.7704 36.8373 28.8753 35.6283 31.7432 32.8729C33.9925 30.9329 35.0328 27.9807 35.3702 25.1128C30.7029 25.1128 26.0356 25.1409 21.3683 25.1128V19.3208H41.0216C42.0338 25.5345 40.5718 32.5355 35.8482 36.9779C32.6992 40.1269 28.3411 41.9826 23.8988 42.3481C19.5969 42.7699 15.1546 41.9545 11.3307 39.8739C6.74777 37.4278 3.09264 33.2947 1.29319 28.4305C-0.393788 23.96 -0.421904 18.8991 1.15261 14.4005C2.58655 10.2955 5.34195 6.66846 8.88461 4.13799C12.2867 1.63563 16.4198 0.25793 20.6373 0.00488281Z" fill="#3780FF"/>
<path d="M133.384 1.4668H139.401V41.617C137.404 41.617 135.38 41.6451 133.384 41.5888C133.412 28.2336 133.384 14.8502 133.384 1.4668Z" fill="#38B137"/>
<path d="M54.4047 15.3842C58.1161 14.6813 62.1367 15.4685 65.2014 17.6897C67.9849 19.6579 69.9249 22.7507 70.5154 26.1246C71.2745 30.0328 70.3186 34.3065 67.7881 37.3993C65.0608 40.8576 60.5903 42.7133 56.2323 42.4321C52.2397 42.2072 48.3597 40.2109 45.9979 36.9494C43.3269 33.3505 42.6802 28.4021 44.1422 24.1846C45.6043 19.6579 49.7374 16.1996 54.4047 15.3842ZM55.2482 20.7263C53.7299 21.1199 52.3241 21.9915 51.3119 23.2286C48.5846 26.4901 48.7533 31.8041 51.7618 34.8407C53.4769 36.5839 56.0636 37.3993 58.4535 36.9213C60.6747 36.5277 62.6147 35.0375 63.6831 33.0694C65.5388 29.7235 65.0046 25.1124 62.1648 22.4976C60.3373 20.8106 57.6662 20.1077 55.2482 20.7263Z" fill="#FA3913"/>
<path d="M84.2089 15.3843C88.4544 14.5689 93.0936 15.7498 96.2708 18.7301C101.444 23.3693 102.007 32.0573 97.5923 37.3994C94.9212 40.7734 90.5913 42.629 86.3176 42.4322C82.2407 42.3198 78.2201 40.2954 75.8021 36.9495C73.0748 33.2663 72.4843 28.2054 74.0307 23.9036C75.5771 19.5174 79.6259 16.1716 84.2089 15.3843ZM85.0524 20.7264C83.5341 21.12 82.1283 21.9916 81.1161 23.2006C78.4169 26.4059 78.5294 31.6356 81.4253 34.7002C83.1404 36.5278 85.8115 37.4275 88.2857 36.9214C90.4788 36.4997 92.447 35.0376 93.5154 33.0695C95.3429 29.6955 94.8087 25.0844 91.9409 22.4696C90.1133 20.7826 87.4422 20.1078 85.0524 20.7264Z" fill="#FCBD06"/>
<path d="M109.485 17.0149C112.718 14.9906 117.02 14.4282 120.506 16.1715C121.603 16.6494 122.503 17.4648 123.374 18.2802C123.402 17.521 123.374 16.7338 123.402 15.9465C125.286 15.9746 127.17 15.9465 129.082 15.9746V40.7733C129.054 44.5127 128.098 48.4772 125.399 51.2044C122.446 54.2129 117.92 55.1407 113.843 54.5222C109.485 53.8755 105.689 50.6983 104.002 46.6777C105.689 45.8623 107.46 45.2157 109.203 44.4565C110.188 46.7621 112.184 48.7302 114.686 49.1801C117.189 49.6299 120.085 49.0114 121.715 46.9308C123.458 44.7939 123.458 41.8698 123.374 39.255C122.081 40.5202 120.591 41.6449 118.791 42.0666C114.883 43.1632 110.581 41.8136 107.573 39.1706C104.536 36.5277 102.737 32.4508 102.905 28.4021C102.99 23.8191 105.576 19.4048 109.485 17.0149ZM115.305 20.6138C113.59 20.895 111.987 21.851 110.89 23.1724C108.248 26.3215 108.248 31.3543 110.919 34.4471C112.437 36.2747 114.883 37.2868 117.245 37.0338C119.466 36.8089 121.518 35.403 122.615 33.463C124.471 30.1734 124.161 25.7029 121.659 22.835C120.113 21.0637 117.638 20.1921 115.305 20.6138Z" fill="#3780FF"/>
<path d="M146.627 18.4493C150.001 15.3003 155.202 14.2319 159.532 15.8907C163.637 17.4371 166.252 21.3453 167.573 25.366C161.472 27.8964 155.399 30.3988 149.298 32.9293C150.141 34.5319 151.435 35.994 153.178 36.5844C155.624 37.456 158.548 37.1467 160.601 35.516C161.416 34.8974 162.063 34.082 162.681 33.2948C164.228 34.3351 165.774 35.3473 167.32 36.3876C165.127 39.6772 161.444 41.9827 157.48 42.3482C153.094 42.8825 148.426 41.1955 145.586 37.7653C140.919 32.3669 141.369 23.3135 146.627 18.4493ZM149.635 23.6509C148.679 25.0286 148.286 26.7156 148.314 28.3744C152.391 26.6874 156.468 25.0005 160.544 23.2854C159.87 21.7108 158.239 20.7549 156.58 20.5018C153.909 20.0239 151.125 21.4578 149.635 23.6509Z" fill="#FA3913"/>
</g>
<defs>
<clipPath id="clip0_724_1184">
<rect width="167.574" height="54.696" fill="white"/>
</clipPath>
</defs>
</svg>
