<svg width="67" height="16" viewBox="0 0 67 16" fill="none" xmlns="http://www.w3.org/2000/svg">
<path d="M11.0097 2.436V15H8.4897V9.654H3.1077V15H0.587703V2.436H3.1077V7.602H8.4897V2.436H11.0097ZM22.904 5.028V15H20.366V13.74C20.042 14.172 19.616 14.514 19.088 14.766C18.572 15.006 18.008 15.126 17.396 15.126C16.616 15.126 15.926 14.964 15.326 14.64C14.726 14.304 14.252 13.818 13.904 13.182C13.568 12.534 13.4 11.766 13.4 10.878V5.028H15.92V10.518C15.92 11.31 16.118 11.922 16.514 12.354C16.91 12.774 17.45 12.984 18.134 12.984C18.83 12.984 19.376 12.774 19.772 12.354C20.168 11.922 20.366 11.31 20.366 10.518V5.028H22.904ZM24.7424 9.978C24.7424 8.97 24.9404 8.076 25.3364 7.296C25.7444 6.516 26.2904 5.916 26.9744 5.496C27.6704 5.076 28.4444 4.866 29.2964 4.866C30.0404 4.866 30.6884 5.016 31.2404 5.316C31.8044 5.616 32.2544 5.994 32.5904 6.45V5.028H35.1284V15H32.5904V13.542C32.2664 14.01 31.8164 14.4 31.2404 14.712C30.6764 15.012 30.0224 15.162 29.2784 15.162C28.4384 15.162 27.6704 14.946 26.9744 14.514C26.2904 14.082 25.7444 13.476 25.3364 12.696C24.9404 11.904 24.7424 10.998 24.7424 9.978ZM32.5904 10.014C32.5904 9.402 32.4704 8.88 32.2304 8.448C31.9904 8.004 31.6664 7.668 31.2584 7.44C30.8504 7.2 30.4124 7.08 29.9444 7.08C29.4764 7.08 29.0444 7.194 28.6484 7.422C28.2524 7.65 27.9284 7.986 27.6764 8.43C27.4364 8.862 27.3164 9.378 27.3164 9.978C27.3164 10.578 27.4364 11.106 27.6764 11.562C27.9284 12.006 28.2524 12.348 28.6484 12.588C29.0564 12.828 29.4884 12.948 29.9444 12.948C30.4124 12.948 30.8504 12.834 31.2584 12.606C31.6664 12.366 31.9904 12.03 32.2304 11.598C32.4704 11.154 32.5904 10.626 32.5904 10.014ZM51.4137 5.028L48.4977 15H45.7797L43.9617 8.034L42.1437 15H39.4077L36.4737 5.028H39.0297L40.7937 12.624L42.7017 5.028H45.3657L47.2377 12.606L49.0017 5.028H51.4137ZM62.0472 9.798C62.0472 10.158 62.0232 10.482 61.9752 10.77H54.6852C54.7452 11.49 54.9972 12.054 55.4412 12.462C55.8852 12.87 56.4312 13.074 57.0792 13.074C58.0152 13.074 58.6812 12.672 59.0772 11.868H61.7952C61.5072 12.828 60.9552 13.62 60.1392 14.244C59.3232 14.856 58.3212 15.162 57.1332 15.162C56.1732 15.162 55.3092 14.952 54.5412 14.532C53.7852 14.1 53.1912 13.494 52.7592 12.714C52.3392 11.934 52.1292 11.034 52.1292 10.014C52.1292 8.982 52.3392 8.076 52.7592 7.296C53.1792 6.516 53.7672 5.916 54.5232 5.496C55.2792 5.076 56.1492 4.866 57.1332 4.866C58.0812 4.866 58.9272 5.07 59.6712 5.478C60.4272 5.886 61.0092 6.468 61.4172 7.224C61.8372 7.968 62.0472 8.826 62.0472 9.798ZM59.4372 9.078C59.4252 8.43 59.1912 7.914 58.7352 7.53C58.2792 7.134 57.7212 6.936 57.0612 6.936C56.4372 6.936 55.9092 7.128 55.4772 7.512C55.0572 7.884 54.7992 8.406 54.7032 9.078H59.4372ZM65.1645 3.84C64.7205 3.84 64.3485 3.702 64.0485 3.426C63.7605 3.138 63.6165 2.784 63.6165 2.364C63.6165 1.944 63.7605 1.596 64.0485 1.32C64.3485 1.032 64.7205 0.887999 65.1645 0.887999C65.6085 0.887999 65.9745 1.032 66.2625 1.32C66.5625 1.596 66.7125 1.944 66.7125 2.364C66.7125 2.784 66.5625 3.138 66.2625 3.426C65.9745 3.702 65.6085 3.84 65.1645 3.84ZM66.4065 5.028V15H63.8865V5.028H66.4065Z" fill="#292929"/>
</svg>
