<svg width="67" height="50" viewBox="0 0 67 50" fill="none" xmlns="http://www.w3.org/2000/svg">
<path d="M28.5377 39.0088C28.6097 38.9549 28.6277 38.8469 28.5917 38.7569C23.6303 28.0931 17.4407 18.0449 10.1488 8.81657C10.1488 8.81657 4.35508 14.3224 4.76892 19.8463C4.86586 21.1198 5.21293 22.3617 5.79028 23.501C6.36763 24.6402 7.16393 25.6545 8.13362 26.4857C13.1897 31.4158 25.4249 37.6414 28.2678 39.0628C28.3578 39.0988 28.4657 39.0808 28.5377 39.0088ZM26.6484 43.2192C26.6125 43.1112 26.5045 43.0393 26.3786 43.0393L6.01044 43.741C8.22359 47.6815 11.9481 50.7403 15.8166 49.8046C18.4976 49.1389 24.5433 44.9105 26.5405 43.4711C26.7024 43.3451 26.6484 43.2372 26.6484 43.2192ZM26.9543 41.4019C27.0623 41.24 26.8824 41.096 26.8824 41.096C17.9398 35.0504 0.59454 25.766 0.59454 25.766C0.0196247 27.5281 -0.141204 29.3991 0.124552 31.2336C0.390309 33.068 1.07549 34.8164 2.12685 36.343C3.17821 37.8695 4.56743 39.1331 6.18653 40.0355C7.80563 40.9378 9.611 41.4547 11.4623 41.5458C11.7682 41.5998 23.5716 41.5458 26.7384 41.5279C26.8284 41.5099 26.9004 41.4739 26.9543 41.4019ZM28.3038 0.017993C27.4221 0.089965 25.0291 0.647748 25.0291 0.647748C19.6312 2.03321 18.3537 6.9453 18.3537 6.9453C17.364 10.0221 18.3717 13.4228 18.3717 13.4228C20.171 21.4117 29.0235 34.5646 30.9308 37.3175C31.0567 37.4614 31.1647 37.4075 31.1647 37.4075C31.2727 37.3715 31.3626 37.2815 31.3626 37.1556C34.3135 7.79097 28.3038 0.017993 28.3038 0.017993ZM35.0512 37.3715C35.1592 37.4075 35.2851 37.3715 35.3391 37.2635C37.3003 34.4386 46.0989 21.3577 47.8982 13.4048C47.8982 13.4048 48.8698 9.55429 47.9342 6.92731C47.9342 6.92731 46.6027 1.94324 41.2048 0.629755C41.2048 0.629755 39.6574 0.233909 38.0021 0C38.0021 0 31.9564 7.77298 34.9072 37.1376C34.8893 37.2455 34.9612 37.3355 35.0512 37.3715ZM39.8733 43.0573C39.8254 43.0669 39.7799 43.0863 39.7397 43.1141C39.6995 43.142 39.6654 43.1777 39.6394 43.2192C39.6214 43.3272 39.6394 43.4171 39.7114 43.4891C41.6546 44.8925 47.5743 49.0309 50.4172 49.8226C50.4172 49.8226 55.6892 51.6219 60.2594 43.759L39.8733 43.0573ZM65.6933 25.73C65.6933 25.73 48.384 35.0324 39.4235 41.078C39.3335 41.15 39.2796 41.258 39.3155 41.3659C39.3155 41.3659 39.4055 41.5279 39.5315 41.5279C42.7342 41.5279 54.8615 41.5458 55.1854 41.4919C56.3909 41.4019 57.5785 41.132 58.694 40.6822C58.694 40.6822 63.0124 39.3147 65.2435 34.4026C65.2435 34.4026 67.2407 30.4082 65.6933 25.73ZM37.7861 39.0088C37.8581 39.0628 37.9661 39.0808 38.056 39.0268C40.9709 37.5694 53.1162 31.3978 58.1363 26.4857C58.1363 26.4857 61.321 23.9307 61.483 19.8103C61.8428 14.1065 56.103 8.81657 56.103 8.81657C56.103 8.81657 45.4872 21.6816 37.6962 38.685C37.6837 38.7422 37.6853 38.8016 37.701 38.858C37.7167 38.9145 37.7459 38.9662 37.7861 39.0088Z" fill="#737373"/>
</svg>
