<svg width="104" height="42" viewBox="0 0 104 42" fill="none" xmlns="http://www.w3.org/2000/svg">
<path fill-rule="evenodd" clip-rule="evenodd" d="M63.9763 16.7606C61.2957 18.0253 62.6888 21.797 65.8363 21.797C66.97 21.797 68.3827 20.2801 68.3827 19.0626C68.3827 17.7922 66.9519 16.3258 65.7195 16.3334C65.253 16.3361 64.4686 16.5282 63.9763 16.7606ZM3.52007 18.4645C3.13306 20.033 0.000369905 37.3705 2.6663e-07 37.9471C-0.000369372 38.4656 0.383315 38.5452 2.88355 38.5452H5.76747L6.63427 32.7165C7.11073 29.5108 7.61936 27.0112 7.76426 27.1623C7.90915 27.3133 9.09052 29.9346 10.3898 32.9879C12.734 38.496 12.761 38.5391 13.8988 38.5422C15.0328 38.5452 15.0727 38.4837 17.5323 32.991C18.9004 29.9363 20.1431 27.3178 20.2939 27.1725C20.4451 27.0269 20.8761 29.3676 21.2513 32.3734C21.6268 35.3791 22.0449 38.0045 22.1805 38.2072C22.3313 38.4331 23.4942 38.537 25.182 38.4752L27.9373 38.3743L26.2861 28.0349L24.6349 17.6954L21.6505 17.7009L18.6664 17.7064L16.4907 23.0073C15.2942 25.9229 14.2048 28.3712 14.0703 28.4481C13.9357 28.525 12.8549 26.1372 11.6687 23.1417L9.51191 17.6954H6.61098C3.90523 17.6954 3.69749 17.747 3.52007 18.4645ZM46.9437 28.1203V38.5452H49.9008H52.8579V34.4436V30.342H55.9999H59.1418V28.1203V25.8986H55.9999H52.8579V24.0187V22.1388H56.3695H59.8811V19.9171V17.6954H53.4124H46.9437V28.1203ZM31.0493 31.5383V38.5452H33.8215H36.5938V34.5882C36.5938 30.6339 36.5946 30.6305 37.7197 29.5901C38.7411 28.6457 39.0153 28.564 40.6769 28.7116L42.508 28.8743V26.7029V24.5314H41.4232C39.9949 24.5314 38.4539 25.0903 37.4255 25.981L36.5938 26.7015V25.6163V24.5314H33.8215H31.0493V31.5383ZM62.8382 31.5383V38.5452H65.6105H68.3827V31.5383V24.5314H65.6105H62.8382V31.5383Z" fill="white"/>
<path fill-rule="evenodd" clip-rule="evenodd" d="M73.7421 0.193827C68.0996 0.899986 62.7569 2.59668 55.445 6.00443C49.2773 8.87862 44.1341 11.8755 37.8872 16.2348C30.9554 21.0723 29.8358 22.1333 34.9301 19.0376C50.2982 9.6986 63.1897 4.73908 73.9 4.04557C81.3748 3.56124 88.3965 5.91693 90.3718 9.57145C91.8548 12.3147 91.029 18.8667 88.6596 23.1618L87.9422 24.462L85.2922 22.2259L82.6427 19.9895H77.3605C74.4556 19.9895 72.0788 20.0435 72.0788 20.1098C72.0788 20.1761 74.5738 22.3472 77.6234 24.9343C80.6729 27.5214 83.1679 29.7923 83.1679 29.9803C83.1679 30.3799 81.1124 32.187 77.3395 35.1042C75.862 36.2465 74.7291 37.2514 74.8215 37.3372C75.1183 37.6114 81.791 34.3376 84.2735 32.6997C94.487 25.9614 99.3026 15.0775 95.3261 7.71889C93.693 4.6967 89.3054 1.85873 84.4628 0.692513C81.6897 0.0246363 76.8807 -0.199243 73.7421 0.193827ZM96.1341 22.1487C91.273 30.0183 78.7378 38.7325 69.8284 40.436C67.4786 40.8851 66.478 40.9162 64.2543 40.6079C62.7635 40.4015 61.2114 40.1195 60.8048 39.981L60.0655 39.7298L60.8048 40.2326C62.7062 41.5256 65.1658 42.0363 69.3065 41.998C72.6994 41.9666 73.8294 41.8104 76.1315 41.0536C79.0864 40.0822 82.7532 38.1948 86.2722 35.8336L88.4527 34.3707L89.4141 35.012C89.943 35.3644 90.9492 36.2045 91.6497 36.8789L92.9234 38.1049L98.3031 38.1022L103.683 38.0994L98.5105 33.5405L93.3382 28.9819L94.3539 27.2558C95.4026 25.4744 97.3303 21.0084 97.1303 20.8235C97.0682 20.7661 96.6198 21.3622 96.1341 22.1487Z" fill="#FE5104"/>
</svg>
