<svg width="19" height="25" viewBox="0 0 19 25" fill="none" xmlns="http://www.w3.org/2000/svg">
<path d="M17.527 24.3972H2.06472C1.39034 24.3972 0.84375 23.8507 0.84375 23.1763V1.47097C0.84375 0.796585 1.39034 0.25 2.06472 0.25H11.9852C12.3109 0.25 12.6163 0.376685 12.8532 0.605807C12.8536 0.606232 12.8541 0.606656 12.8545 0.607081L18.3935 6.14616C18.6193 6.37195 18.7479 6.68423 18.7479 7.01275V23.1848C18.7479 23.8497 18.2023 24.3972 17.527 24.3972Z" fill="url(#paint0_linear_637_1984)" stroke="#F9B54C" stroke-width="0.5"/>
<path d="M14.698 13.4952H4.8973C4.6835 13.4952 4.50391 13.6663 4.50391 13.8886V21.0382C4.50391 21.252 4.67495 21.4316 4.8973 21.4316H14.7066C14.9204 21.4316 15.1 21.2606 15.1 21.0382V13.8886C15.0914 13.6748 14.9204 13.4952 14.698 13.4952Z" fill="#FFD05B"/>
<path d="M12.2436 15.7958V13.4952H11.6877V15.7958H7.90765V13.4952H7.35176V15.7958H4.50391V16.3602H15.0914V15.7958H12.2436Z" fill="#F9B54C"/>
<path d="M4.50391 19.1225H7.35176V21.4231H7.90765V19.1225H11.6877V21.4231H12.2436V19.1225H15.0914V18.5581H4.50391V19.1225Z" fill="#F9B54C"/>
<defs>
<linearGradient id="paint0_linear_637_1984" x1="9.79584" y1="0" x2="9.79584" y2="24.6472" gradientUnits="userSpaceOnUse">
<stop stop-color="#F2F2F2"/>
<stop offset="1" stop-color="#F2F2F2" stop-opacity="0"/>
</linearGradient>
</defs>
</svg>
