<svg width="16" height="22" viewBox="0 0 16 22" fill="none" xmlns="http://www.w3.org/2000/svg">
<path d="M15.6111 11.0556C15.3518 10.7962 15.0371 10.6668 14.6665 10.6668H7.44433C5.78748 10.6668 4.44433 9.32363 4.44433 7.66678V6.22235C4.44433 5.24069 4.79163 4.40284 5.48612 3.70835C6.18066 3.014 7.01856 2.66676 8.00012 2.66676C8.98158 2.66676 9.81963 3.01395 10.5139 3.70835C11.2084 4.40284 11.5557 5.24074 11.5557 6.22235C11.5557 6.46301 11.6436 6.67131 11.8194 6.84722C11.9955 7.02318 12.2039 7.11118 12.4444 7.11118H13.3337C13.5742 7.11118 13.7826 7.02318 13.9587 6.84722C14.1341 6.67131 14.2224 6.46301 14.2224 6.22235C14.2224 4.50918 13.6136 3.04416 12.3961 1.82647C11.1785 0.608725 9.71305 0 8.00012 0C6.28705 0 4.82179 0.608725 3.60405 1.82642C2.3865 3.04397 1.77772 4.50913 1.77772 6.2223V10.2223C1.77772 10.4678 1.57876 10.6667 1.33333 10.6667V10.6667C0.963073 10.6667 0.648179 10.7965 0.388888 11.0555C0.129597 11.3146 0 11.6296 0 12V20.0001C0 20.3707 0.129645 20.6855 0.388888 20.9447C0.648179 21.2038 0.963073 21.3335 1.33333 21.3335H14.6665C15.0371 21.3335 15.3521 21.2038 15.6111 20.9447C15.8702 20.6855 16 20.3707 16 20.0001V12C16.0002 11.6296 15.8705 11.315 15.6111 11.0556Z" fill="#FE5104"/>
</svg>
