<svg width="53" height="52" viewBox="0 0 53 52" fill="none" xmlns="http://www.w3.org/2000/svg">
<g opacity="0.8">
<path fill-rule="evenodd" clip-rule="evenodd" d="M26.0011 0C40.5543 0 52.0101 11.7217 52.0101 25.9989C52.0101 40.3606 40.3628 52 26.0011 52C11.6394 52 0 40.3606 0 25.9989C0 11.6372 11.6401 0 26.0011 0ZM25.9433 31.4501L18.6692 7.31885L9.25153 38.2148H11.0187C11.0187 38.2148 12.2087 32.8402 14.1363 29.6294C15.189 27.889 16.8095 26.4635 18.977 26.5039C20.5044 26.5314 21.8251 27.368 23.4767 29.6728C24.4694 31.0593 25.9982 34.5865 25.9982 34.5865C25.9982 34.5865 27.527 31.0643 28.5233 29.6728C30.1684 27.368 31.4906 26.5314 33.0208 26.5039C35.184 26.4628 36.811 27.889 37.8594 29.6323C39.7913 32.8395 40.9776 38.2141 40.9776 38.2141H42.7485L33.325 7.31813L26.0509 31.4501L26.0018 31.4942L25.9433 31.4501Z" fill="#737373"/>
</g>
</svg>
