<svg width="44" height="44" viewBox="0 0 44 44" fill="none" xmlns="http://www.w3.org/2000/svg">
<path d="M14.1429 44.0007H4.71429C2.04286 44.0007 0 41.9578 0 39.2864V29.8578C0 27.1864 2.04286 25.1436 4.71429 25.1436H14.1429C16.8143 25.1436 18.8571 27.1864 18.8571 29.8578V39.2864C18.8571 41.9578 16.8143 44.0007 14.1429 44.0007Z" fill="url(#paint0_linear_187_1787)"/>
<path d="M42.4286 6.28641H23.5714C22.6286 6.28641 22 5.65784 22 4.71498C22 3.77213 22.6286 3.14355 23.5714 3.14355H42.4286C43.3714 3.14355 44 3.77213 44 4.71498C44 5.65784 43.3714 6.28641 42.4286 6.28641Z" fill="url(#paint1_linear_187_1787)"/>
<path d="M34.5714 12.5716H23.5714C22.6286 12.5716 22 11.943 22 11.0001C22 10.0573 22.6286 9.42871 23.5714 9.42871H34.5714C35.5143 9.42871 36.1429 10.0573 36.1429 11.0001C36.1429 11.943 35.5143 12.5716 34.5714 12.5716Z" fill="url(#paint2_linear_187_1787)"/>
<path d="M42.4286 31.428H23.5714C22.6286 31.428 22 30.7994 22 29.8566C22 28.9137 22.6286 28.2852 23.5714 28.2852H42.4286C43.3714 28.2852 44 28.9137 44 29.8566C44 30.7994 43.3714 31.428 42.4286 31.428Z" fill="url(#paint3_linear_187_1787)"/>
<path d="M34.5714 37.7141H23.5714C22.6286 37.7141 22 37.0856 22 36.1427C22 35.1999 22.6286 34.5713 23.5714 34.5713H34.5714C35.5143 34.5713 36.1429 35.1999 36.1429 36.1427C36.1429 37.0856 35.5143 37.7141 34.5714 37.7141Z" fill="url(#paint4_linear_187_1787)"/>
<path d="M14.1429 0H4.71429C2.04286 0 0 2.04286 0 4.71429V14.1429C0 16.8143 2.04286 18.8571 4.71429 18.8571H14.1429C16.8143 18.8571 18.8571 16.8143 18.8571 14.1429V4.71429C18.8571 2.04286 16.8143 0 14.1429 0ZM15.2429 7.38571L9.1 13.3C8.78572 13.6143 8.47143 13.7714 8 13.7714C7.52857 13.7714 7.21429 13.6143 6.9 13.3L3.75714 10.1571C3.12857 9.52857 3.12857 8.58571 3.75714 7.95714C4.38571 7.32857 5.32857 7.32857 5.95714 7.95714L8 10L13.0429 5.18571C13.6714 4.55714 14.6143 4.55714 15.2429 5.18571C15.8714 5.81429 15.8714 6.75714 15.2429 7.38571Z" fill="url(#paint5_linear_187_1787)"/>
<defs>
<linearGradient id="paint0_linear_187_1787" x1="6.89011" y1="25.1649" x2="23.1761" y2="43.0827" gradientUnits="userSpaceOnUse">
<stop stop-color="#FE5104"/>
<stop offset="1" stop-color="#FF8C46"/>
</linearGradient>
<linearGradient id="paint1_linear_187_1787" x1="30.0385" y1="3.1471" x2="30.7348" y2="8.51012" gradientUnits="userSpaceOnUse">
<stop stop-color="#FE5104"/>
<stop offset="1" stop-color="#FF8C46"/>
</linearGradient>
<linearGradient id="paint2_linear_187_1787" x1="27.1676" y1="9.43226" x2="28.2259" y2="14.6719" gradientUnits="userSpaceOnUse">
<stop stop-color="#FE5104"/>
<stop offset="1" stop-color="#FF8C46"/>
</linearGradient>
<linearGradient id="paint3_linear_187_1787" x1="30.0385" y1="28.2887" x2="30.7348" y2="33.6517" gradientUnits="userSpaceOnUse">
<stop stop-color="#FE5104"/>
<stop offset="1" stop-color="#FF8C46"/>
</linearGradient>
<linearGradient id="paint4_linear_187_1787" x1="27.1676" y1="34.5748" x2="28.2259" y2="39.8145" gradientUnits="userSpaceOnUse">
<stop stop-color="#FE5104"/>
<stop offset="1" stop-color="#FF8C46"/>
</linearGradient>
<linearGradient id="paint5_linear_187_1787" x1="6.89011" y1="0.0212973" x2="23.1761" y2="17.9391" gradientUnits="userSpaceOnUse">
<stop stop-color="#FE5104"/>
<stop offset="1" stop-color="#FF8C46"/>
</linearGradient>
</defs>
</svg>
