<svg width="156" height="26" viewBox="0 0 156 26" fill="none" xmlns="http://www.w3.org/2000/svg">
<g opacity="0.8">
<path d="M7.57398 25.6792H0.0692139V0.420881H13.0486L27.9386 19.2777V0.420881H35.4433V25.6792H22.7269L7.57398 6.50049V25.6792ZM71.3508 17.8692C71.3508 21.3802 70.7238 22.5901 69.6846 23.7517C68.0921 25.4806 65.7766 26 61.3124 26H48.4988C44.0346 26 41.7161 25.4801 40.1251 23.7517C39.0879 22.5911 38.4595 21.3802 38.4595 17.8692V8.13227C38.4595 4.62181 39.0879 3.41239 40.1251 2.24979C41.7161 0.519448 44.0351 0 48.4988 0H61.3129C65.7766 0 68.0926 0.519941 69.6846 2.24979C70.7233 3.4119 71.3508 4.62131 71.3508 8.13227V17.8692ZM60.9972 19.5996C62.7111 19.5996 63.3157 19.5005 63.726 19.1304C64.1114 18.7844 64.2812 18.3394 64.2812 16.8554V9.14504C64.2812 7.66161 64.1114 7.21905 63.726 6.8716C63.3157 6.50049 62.7111 6.40242 60.9972 6.40242H48.8131C47.0991 6.40242 46.4951 6.50049 46.0857 6.8716C45.6993 7.21905 45.5305 7.6621 45.5305 9.14504V16.8554C45.5305 18.3389 45.6988 18.7844 46.0857 19.1304C46.4951 19.5005 47.0991 19.5996 48.8131 19.5996H60.9972ZM82.2571 0.420881V25.6792H74.4157V0.420881H82.2571ZM95.5053 0.420881H105.857L91.8861 12.2356L107.644 25.6792H96.5665L82.2571 12.5062L95.5053 0.420881ZM109.091 0.420881H116.935V25.6792H109.091V0.420881ZM146.834 25.6792L144.514 21.2791H129.339L127.046 25.6792H118.383L132.283 0.420388H142.031L155.931 25.6792H146.834ZM132.064 15.7929H141.815L136.938 6.64834L132.064 15.7929Z" fill="#737373"/>
</g>
</svg>
