<svg width="44" height="36" viewBox="0 0 44 36" fill="none" xmlns="http://www.w3.org/2000/svg">
<path fill-rule="evenodd" clip-rule="evenodd" d="M26.9975 3.67426C26.0446 3.41182 25.0373 3.86902 24.64 4.74415L21.3231 12.0517C20.7641 13.283 19.8571 14.52 18.785 15.5369C18.1819 16.1091 17.487 16.6487 16.7261 17.0812C16.7794 17.3802 16.8072 17.6873 16.8072 18.0001V30.0975C20.479 30.9944 23.2783 31.4954 25.9105 31.634C28.8626 31.7897 31.6877 31.4932 35.3681 30.6949C36.7255 30.4004 37.7937 29.3323 38.0789 27.9578L40.227 17.6059C40.458 16.4921 39.5741 15.453 38.3958 15.453H31.1502C28.8422 15.453 27.0866 13.4554 27.4661 11.2611L28.4063 5.82267C28.572 4.8654 27.9656 3.94086 26.9975 3.67426ZM15.8746 33.5835C19.6593 34.5089 22.7304 35.0719 25.7066 35.2287C29.0981 35.4073 32.2806 35.0546 36.1882 34.207C39.0457 33.5871 41.1792 31.3728 41.7413 28.664L43.8893 18.3119C44.5827 14.9704 41.9311 11.853 38.3958 11.853H31.1502L32.0905 6.41451C32.5684 3.65122 30.8182 0.982399 28.0235 0.212796C25.2729 -0.544728 22.3649 0.774986 21.2181 3.30121L17.9013 10.6088C17.5528 11.3765 16.9351 12.2408 16.1653 12.971C15.7441 13.3705 15.3133 13.6962 14.8983 13.9401C13.9133 13.1072 12.6208 12.6002 11.2048 12.6002H5.60239C2.50828 12.6002 0 15.0177 0 18.0001V30.6C0 33.5824 2.50828 36 5.60239 36H11.2048C13.1559 36 14.8717 35.0395 15.8746 33.5835ZM5.60239 16.2002C4.57102 16.2002 3.73492 17.006 3.73492 18.0001V30.6C3.73492 31.5942 4.57102 32.4 5.60239 32.4H11.2048C12.0795 32.4 12.8179 31.8186 13.0184 31.0328C13.0533 30.896 13.0722 30.7514 13.0722 30.6V18.0001C13.0722 17.6517 12.9714 17.3316 12.7972 17.0589C12.4655 16.5398 11.8755 16.2002 11.2048 16.2002H5.60239Z" fill="url(#paint0_linear_569_667)"/>
<defs>
<linearGradient id="paint0_linear_569_667" x1="16.0769" y1="0.0406586" x2="45.9888" y2="40.2627" gradientUnits="userSpaceOnUse">
<stop stop-color="#FE5104"/>
<stop offset="1" stop-color="#FF8C46"/>
</linearGradient>
</defs>
</svg>
