<svg width="243" height="100" viewBox="0 0 243 100" fill="none" xmlns="http://www.w3.org/2000/svg">
<circle cx="121" cy="50" r="50" fill="#FFF0EA"/>
<g opacity="0.8">
<mask id="path-2-inside-1_1099_1503" fill="white">
<path fill-rule="evenodd" clip-rule="evenodd" d="M93.7159 15.0572C91.4577 16.1428 82.3286 20.3901 73.429 24.4962C64.5293 28.6023 49.5315 35.5315 40.1005 39.8947C30.6695 44.2579 20.8293 48.7893 18.2341 49.9642L13.5145 52.1011H0L11.5534 60.8989H36.6213L43.5343 62.657C59.4223 66.6976 75.3466 73.7778 86.0479 81.5599C92.3291 86.1274 91.7838 85.0375 91.7838 93.0214V100H99.7536H107.724V93.1573V86.3146H119.558H131.392V93.1573V100H139.361H147.331V93.1573C147.331 88.9911 147.517 86.3146 147.807 86.3146C148.069 86.3146 149.835 85.101 151.732 83.6181C162.88 74.902 177.707 68.1033 196.644 63.024L203.603 61.1579L231.739 61.0098L243 52.1011H226.125L207.136 43.3513C196.692 38.5384 177.622 29.7407 164.759 23.8007L141.371 13L119.596 13.042L97.8216 13.0841L93.7159 15.0572ZM134.152 22.916C132.235 25.682 128.276 31.3971 125.354 35.6161C122.432 39.8356 119.932 43.2804 119.799 43.2711C119.666 43.2618 117.275 39.9211 114.486 35.8478C111.696 31.7744 107.838 26.2001 105.912 23.4605C103.986 20.7215 102.41 18.3466 102.41 18.1838C102.41 18.0211 110.336 17.8876 120.024 17.8876H137.637L134.152 22.916ZM85.3499 32.7876C76.9323 44.9935 75.361 47.0473 75.361 45.844C75.361 45.6279 73.7067 42.2823 71.6843 38.4084C69.6619 34.5344 68.1949 31.2974 68.4239 31.2148C68.6528 31.1322 74.4916 28.4376 81.3988 25.2269C88.306 22.0162 94.1052 19.3813 94.2858 19.3715C94.4665 19.3618 90.4453 25.399 85.3499 32.7876ZM153.611 34.0965C158.791 41.6357 163.214 48.1949 163.44 48.6729C163.715 49.2541 163.576 49.9662 163.022 50.8215L162.194 52.1011H154.28C147.6 52.1011 146.365 51.9877 146.365 51.3748C146.365 50.3504 144.007 23.8457 143.744 21.9199C143.625 21.046 143.677 20.3447 143.86 20.3608C144.042 20.3764 148.43 26.5578 153.611 34.0965ZM159.916 25.9645C166.645 29.0627 172.272 31.7211 172.42 31.8722C172.704 32.1615 165.619 46.2428 165.203 46.2149C165.07 46.2057 162.533 42.6328 159.565 38.275C156.598 33.9167 152.617 28.0965 150.721 25.3413C148.825 22.5861 147.365 20.3315 147.478 20.3315C147.59 20.3315 153.188 22.8662 159.916 25.9645ZM109.979 33.8482L118.272 45.8489L116.05 48.975L113.827 52.1011H106.187C98.5833 52.1011 98.5461 52.0957 98.5514 51.0014C98.5548 50.3963 99.0958 44.0732 99.7536 36.9494C100.412 29.8257 100.953 23.5026 100.956 22.8975C100.959 22.2924 101.124 21.809 101.323 21.8227C101.522 21.8364 105.418 27.248 109.979 33.8482ZM139.836 35.3927C140.505 42.6997 141.052 49.4481 141.052 50.3895V52.1011H133.419H125.786L123.719 49.1358C122.582 47.5053 121.772 45.8562 121.918 45.471C122.064 45.0864 124.507 41.4172 127.348 37.317C135.627 25.3657 138.248 21.7298 138.44 21.9243C138.539 22.0245 139.167 28.0852 139.836 35.3927ZM94.8259 34.8722C94.2226 41.5257 93.6019 48.1241 93.4464 49.5351L93.1633 52.1011H85.9653H78.7668L78.0032 50.6065L77.239 49.1114L86.3227 35.9616C91.3186 28.7294 95.5224 22.8036 95.6644 22.7934C95.8064 22.7836 95.4287 28.2186 94.8259 34.8722ZM70.0647 41.1499L74.0854 49.0156L72.9995 50.5586L71.9142 52.1011H64.3081H56.7019L55.903 50.4056L55.1041 48.7096L60.2816 40.6665C63.129 36.2427 65.5905 32.772 65.7513 32.9533C65.9122 33.1351 67.853 36.8233 70.0647 41.1499ZM181.621 41.7701L186.1 48.7897L185.32 50.4457L184.539 52.1011H176.836H169.133L168.094 50.6251L167.055 49.149L169.574 44.1489C170.96 41.3987 172.855 37.7549 173.785 36.0516C175.838 32.2925 175.346 31.9328 181.621 41.7701ZM57.3704 40.3591C55.4432 43.3092 53.7579 45.7169 53.6251 45.7091C53.0348 45.6739 50.5956 39.8209 51.0061 39.4245C51.5022 38.9451 59.9367 35.0237 60.5101 35.0056C60.7105 34.9993 59.2977 37.4084 57.3704 40.3591ZM185.678 37.8483C187.969 38.8805 189.961 39.8439 190.105 39.9896C190.396 40.2848 187.861 45.7472 187.433 45.7472C187.283 45.7472 186.244 44.2623 185.124 42.448C184.004 40.6337 182.628 38.4343 182.067 37.5604C181.507 36.6865 181.152 35.9719 181.28 35.9719C181.408 35.9719 183.387 36.8165 185.678 37.8483ZM49.8966 44.5336C50.8844 46.5541 51.693 48.4447 51.693 48.7345C51.693 49.0248 51.2433 49.9007 50.6941 50.6818C49.7194 52.0664 49.5899 52.1011 45.3963 52.1011C41.2037 52.1011 41.08 52.0679 40.4057 50.7648C39.7396 49.4794 39.8053 49.3093 42.1499 46.2438C44.9543 42.578 46.6642 40.8596 47.5081 40.8596C47.8336 40.8596 48.9084 42.5125 49.8966 44.5336ZM194.459 42.038C194.994 42.4172 196.753 44.343 198.367 46.3176C201.151 49.7243 201.265 49.9643 200.582 51.0043C199.928 52.0024 199.481 52.1011 195.614 52.1011H191.365L190.344 50.43L189.324 48.7585L191.136 45.0536C192.132 43.0155 193.069 41.3483 193.217 41.3483C193.365 41.3483 193.924 41.6587 194.459 42.038ZM39.2339 45.864C38.4543 46.6524 38.0375 46.7878 37.6375 46.3831C37.2371 45.9779 37.4564 45.6431 38.4775 45.1011C40.2463 44.1612 40.582 44.4999 39.2339 45.864ZM203.362 46.233C203.362 47.062 202.637 47.1436 201.831 46.4055C200.569 45.2501 200.738 44.6949 202.154 45.3474C202.818 45.6534 203.362 46.0522 203.362 46.233ZM36.2363 49.1568C36.2363 49.3597 35.7856 50.105 35.235 50.8132C34.266 52.0596 34.0699 52.1011 29.117 52.1011C26.3025 52.1011 24.1627 51.9364 24.3617 51.7346C24.5607 51.5327 26.9333 50.3342 29.6343 49.0713L34.5457 46.7741L35.391 47.7809C35.8562 48.3352 36.2363 48.954 36.2363 49.1568ZM210.788 49.3968C213.345 50.5977 215.437 51.6974 215.437 51.8406C215.437 51.9838 213.398 52.1011 210.904 52.1011C206.545 52.1011 206.339 52.0518 205.541 50.8191C204.84 49.7375 204.807 49.3562 205.326 48.3753C205.663 47.7365 205.985 47.2135 206.04 47.2135C206.094 47.2135 208.231 48.1959 210.788 49.3968ZM122.214 51.8308C122.214 51.9794 121.127 52.1011 119.799 52.1011C118.471 52.1011 117.384 51.9569 117.384 51.7805C117.384 51.6045 117.951 50.7081 118.643 49.7893L119.903 48.1187L121.058 49.8396C121.694 50.7859 122.214 51.6823 122.214 51.8308ZM56.002 60.8989C58.0128 60.8989 58.3722 61.0592 58.877 62.1794C59.3904 63.3197 59.3614 63.4238 58.6118 63.133C58.1491 62.9532 56.5116 62.4321 54.9737 61.9746C53.4357 61.5172 52.177 60.9546 52.1765 60.7244C52.1765 60.4942 52.5199 60.439 52.9401 60.6022C53.3604 60.7654 54.7384 60.8989 56.002 60.8989ZM189.354 60.8989C189.354 61.1677 189.062 61.3876 188.704 61.3876C188.348 61.3876 186.777 61.8143 185.214 62.3358C183.652 62.8578 182.296 63.2063 182.202 63.111C182.108 63.0157 182.268 62.4893 182.558 61.9414C182.983 61.1369 183.664 60.9121 186.099 60.7718C187.756 60.6765 189.167 60.5562 189.233 60.5044C189.3 60.4526 189.354 60.6301 189.354 60.8989ZM64.8065 62.4791C63.4734 64.6101 63.1266 64.6286 62.1794 62.6188L61.3689 60.8989H63.5821H65.7953L64.8065 62.4791ZM80.539 61.5098C81.7055 63.0397 89.3928 78.5696 88.8137 78.226C88.4548 78.0134 87.2917 77.251 86.229 76.5315C83.0194 74.359 74.8925 69.9532 70.5308 68.0211C68.2727 67.0211 66.2764 66.0544 66.0943 65.8725C65.9127 65.6907 66.5314 64.4976 67.469 63.2205L69.1745 60.8989H74.6235C78.4128 60.8989 80.2149 61.0851 80.539 61.5098ZM92.0847 64.9312C91.4911 72.3814 91.1689 75.073 90.8718 75.0652C90.6308 75.0584 84.21 62.8466 83.6531 61.3358C83.5642 61.0954 85.4977 60.8989 87.9486 60.8989H92.4059L92.0847 64.9312ZM106.172 63.2205C105.269 64.4976 102.725 68.1384 100.518 71.312C98.3113 74.4851 96.4276 77.0027 96.3324 76.9059C96.2368 76.8096 96.4778 73.2231 96.8676 68.9366C97.2574 64.6501 97.5771 61.088 97.5781 61.0211C97.5791 60.9541 99.8826 60.8989 102.697 60.8989H107.814L106.172 63.2205ZM135.82 71.1297C139.708 76.7568 142.765 81.4856 142.614 81.6381C142.256 82.0008 97.3424 82.0013 96.984 81.6386C96.8338 81.4861 99.8947 76.7671 103.787 71.1517L110.863 60.9419L119.808 60.9204L128.753 60.8989L135.82 71.1297ZM142.225 62.4874C142.682 65.3891 143.566 76.6029 143.354 76.8174C143.239 76.9333 140.622 73.3995 137.538 68.9635L131.931 60.8989H136.953H141.974L142.225 62.4874ZM157.308 61.9986C156.938 62.6037 154.956 66.3584 152.904 70.3428C150.851 74.3272 149.08 77.4949 148.969 77.3815C148.758 77.1684 147.358 63.9361 147.341 61.9986C147.331 60.9243 147.453 60.8989 152.656 60.8989H157.98L157.308 61.9986ZM173.776 63.3451L175.346 65.7738L173.597 66.5133C172.634 66.92 171.751 67.2528 171.633 67.2528C171.028 67.2528 158.676 73.7495 155.859 75.5501C154.066 76.6962 152.534 77.5525 152.456 77.4528C152.377 77.3536 154.252 73.5882 156.621 69.0857L160.929 60.8989L166.568 60.9077L172.207 60.9165L173.776 63.3451ZM179.694 61.1677C179.694 61.7435 178.201 64.3197 177.87 64.3144C177.678 64.3109 177.029 63.5411 176.429 62.6037L175.338 60.8989H177.516C178.714 60.8989 179.694 61.0196 179.694 61.1677Z"/>
</mask>
<path fill-rule="evenodd" clip-rule="evenodd" d="M93.7159 15.0572C91.4577 16.1428 82.3286 20.3901 73.429 24.4962C64.5293 28.6023 49.5315 35.5315 40.1005 39.8947C30.6695 44.2579 20.8293 48.7893 18.2341 49.9642L13.5145 52.1011H0L11.5534 60.8989H36.6213L43.5343 62.657C59.4223 66.6976 75.3466 73.7778 86.0479 81.5599C92.3291 86.1274 91.7838 85.0375 91.7838 93.0214V100H99.7536H107.724V93.1573V86.3146H119.558H131.392V93.1573V100H139.361H147.331V93.1573C147.331 88.9911 147.517 86.3146 147.807 86.3146C148.069 86.3146 149.835 85.101 151.732 83.6181C162.88 74.902 177.707 68.1033 196.644 63.024L203.603 61.1579L231.739 61.0098L243 52.1011H226.125L207.136 43.3513C196.692 38.5384 177.622 29.7407 164.759 23.8007L141.371 13L119.596 13.042L97.8216 13.0841L93.7159 15.0572ZM134.152 22.916C132.235 25.682 128.276 31.3971 125.354 35.6161C122.432 39.8356 119.932 43.2804 119.799 43.2711C119.666 43.2618 117.275 39.9211 114.486 35.8478C111.696 31.7744 107.838 26.2001 105.912 23.4605C103.986 20.7215 102.41 18.3466 102.41 18.1838C102.41 18.0211 110.336 17.8876 120.024 17.8876H137.637L134.152 22.916ZM85.3499 32.7876C76.9323 44.9935 75.361 47.0473 75.361 45.844C75.361 45.6279 73.7067 42.2823 71.6843 38.4084C69.6619 34.5344 68.1949 31.2974 68.4239 31.2148C68.6528 31.1322 74.4916 28.4376 81.3988 25.2269C88.306 22.0162 94.1052 19.3813 94.2858 19.3715C94.4665 19.3618 90.4453 25.399 85.3499 32.7876ZM153.611 34.0965C158.791 41.6357 163.214 48.1949 163.44 48.6729C163.715 49.2541 163.576 49.9662 163.022 50.8215L162.194 52.1011H154.28C147.6 52.1011 146.365 51.9877 146.365 51.3748C146.365 50.3504 144.007 23.8457 143.744 21.9199C143.625 21.046 143.677 20.3447 143.86 20.3608C144.042 20.3764 148.43 26.5578 153.611 34.0965ZM159.916 25.9645C166.645 29.0627 172.272 31.7211 172.42 31.8722C172.704 32.1615 165.619 46.2428 165.203 46.2149C165.07 46.2057 162.533 42.6328 159.565 38.275C156.598 33.9167 152.617 28.0965 150.721 25.3413C148.825 22.5861 147.365 20.3315 147.478 20.3315C147.59 20.3315 153.188 22.8662 159.916 25.9645ZM109.979 33.8482L118.272 45.8489L116.05 48.975L113.827 52.1011H106.187C98.5833 52.1011 98.5461 52.0957 98.5514 51.0014C98.5548 50.3963 99.0958 44.0732 99.7536 36.9494C100.412 29.8257 100.953 23.5026 100.956 22.8975C100.959 22.2924 101.124 21.809 101.323 21.8227C101.522 21.8364 105.418 27.248 109.979 33.8482ZM139.836 35.3927C140.505 42.6997 141.052 49.4481 141.052 50.3895V52.1011H133.419H125.786L123.719 49.1358C122.582 47.5053 121.772 45.8562 121.918 45.471C122.064 45.0864 124.507 41.4172 127.348 37.317C135.627 25.3657 138.248 21.7298 138.44 21.9243C138.539 22.0245 139.167 28.0852 139.836 35.3927ZM94.8259 34.8722C94.2226 41.5257 93.6019 48.1241 93.4464 49.5351L93.1633 52.1011H85.9653H78.7668L78.0032 50.6065L77.239 49.1114L86.3227 35.9616C91.3186 28.7294 95.5224 22.8036 95.6644 22.7934C95.8064 22.7836 95.4287 28.2186 94.8259 34.8722ZM70.0647 41.1499L74.0854 49.0156L72.9995 50.5586L71.9142 52.1011H64.3081H56.7019L55.903 50.4056L55.1041 48.7096L60.2816 40.6665C63.129 36.2427 65.5905 32.772 65.7513 32.9533C65.9122 33.1351 67.853 36.8233 70.0647 41.1499ZM181.621 41.7701L186.1 48.7897L185.32 50.4457L184.539 52.1011H176.836H169.133L168.094 50.6251L167.055 49.149L169.574 44.1489C170.96 41.3987 172.855 37.7549 173.785 36.0516C175.838 32.2925 175.346 31.9328 181.621 41.7701ZM57.3704 40.3591C55.4432 43.3092 53.7579 45.7169 53.6251 45.7091C53.0348 45.6739 50.5956 39.8209 51.0061 39.4245C51.5022 38.9451 59.9367 35.0237 60.5101 35.0056C60.7105 34.9993 59.2977 37.4084 57.3704 40.3591ZM185.678 37.8483C187.969 38.8805 189.961 39.8439 190.105 39.9896C190.396 40.2848 187.861 45.7472 187.433 45.7472C187.283 45.7472 186.244 44.2623 185.124 42.448C184.004 40.6337 182.628 38.4343 182.067 37.5604C181.507 36.6865 181.152 35.9719 181.28 35.9719C181.408 35.9719 183.387 36.8165 185.678 37.8483ZM49.8966 44.5336C50.8844 46.5541 51.693 48.4447 51.693 48.7345C51.693 49.0248 51.2433 49.9007 50.6941 50.6818C49.7194 52.0664 49.5899 52.1011 45.3963 52.1011C41.2037 52.1011 41.08 52.0679 40.4057 50.7648C39.7396 49.4794 39.8053 49.3093 42.1499 46.2438C44.9543 42.578 46.6642 40.8596 47.5081 40.8596C47.8336 40.8596 48.9084 42.5125 49.8966 44.5336ZM194.459 42.038C194.994 42.4172 196.753 44.343 198.367 46.3176C201.151 49.7243 201.265 49.9643 200.582 51.0043C199.928 52.0024 199.481 52.1011 195.614 52.1011H191.365L190.344 50.43L189.324 48.7585L191.136 45.0536C192.132 43.0155 193.069 41.3483 193.217 41.3483C193.365 41.3483 193.924 41.6587 194.459 42.038ZM39.2339 45.864C38.4543 46.6524 38.0375 46.7878 37.6375 46.3831C37.2371 45.9779 37.4564 45.6431 38.4775 45.1011C40.2463 44.1612 40.582 44.4999 39.2339 45.864ZM203.362 46.233C203.362 47.062 202.637 47.1436 201.831 46.4055C200.569 45.2501 200.738 44.6949 202.154 45.3474C202.818 45.6534 203.362 46.0522 203.362 46.233ZM36.2363 49.1568C36.2363 49.3597 35.7856 50.105 35.235 50.8132C34.266 52.0596 34.0699 52.1011 29.117 52.1011C26.3025 52.1011 24.1627 51.9364 24.3617 51.7346C24.5607 51.5327 26.9333 50.3342 29.6343 49.0713L34.5457 46.7741L35.391 47.7809C35.8562 48.3352 36.2363 48.954 36.2363 49.1568ZM210.788 49.3968C213.345 50.5977 215.437 51.6974 215.437 51.8406C215.437 51.9838 213.398 52.1011 210.904 52.1011C206.545 52.1011 206.339 52.0518 205.541 50.8191C204.84 49.7375 204.807 49.3562 205.326 48.3753C205.663 47.7365 205.985 47.2135 206.04 47.2135C206.094 47.2135 208.231 48.1959 210.788 49.3968ZM122.214 51.8308C122.214 51.9794 121.127 52.1011 119.799 52.1011C118.471 52.1011 117.384 51.9569 117.384 51.7805C117.384 51.6045 117.951 50.7081 118.643 49.7893L119.903 48.1187L121.058 49.8396C121.694 50.7859 122.214 51.6823 122.214 51.8308ZM56.002 60.8989C58.0128 60.8989 58.3722 61.0592 58.877 62.1794C59.3904 63.3197 59.3614 63.4238 58.6118 63.133C58.1491 62.9532 56.5116 62.4321 54.9737 61.9746C53.4357 61.5172 52.177 60.9546 52.1765 60.7244C52.1765 60.4942 52.5199 60.439 52.9401 60.6022C53.3604 60.7654 54.7384 60.8989 56.002 60.8989ZM189.354 60.8989C189.354 61.1677 189.062 61.3876 188.704 61.3876C188.348 61.3876 186.777 61.8143 185.214 62.3358C183.652 62.8578 182.296 63.2063 182.202 63.111C182.108 63.0157 182.268 62.4893 182.558 61.9414C182.983 61.1369 183.664 60.9121 186.099 60.7718C187.756 60.6765 189.167 60.5562 189.233 60.5044C189.3 60.4526 189.354 60.6301 189.354 60.8989ZM64.8065 62.4791C63.4734 64.6101 63.1266 64.6286 62.1794 62.6188L61.3689 60.8989H63.5821H65.7953L64.8065 62.4791ZM80.539 61.5098C81.7055 63.0397 89.3928 78.5696 88.8137 78.226C88.4548 78.0134 87.2917 77.251 86.229 76.5315C83.0194 74.359 74.8925 69.9532 70.5308 68.0211C68.2727 67.0211 66.2764 66.0544 66.0943 65.8725C65.9127 65.6907 66.5314 64.4976 67.469 63.2205L69.1745 60.8989H74.6235C78.4128 60.8989 80.2149 61.0851 80.539 61.5098ZM92.0847 64.9312C91.4911 72.3814 91.1689 75.073 90.8718 75.0652C90.6308 75.0584 84.21 62.8466 83.6531 61.3358C83.5642 61.0954 85.4977 60.8989 87.9486 60.8989H92.4059L92.0847 64.9312ZM106.172 63.2205C105.269 64.4976 102.725 68.1384 100.518 71.312C98.3113 74.4851 96.4276 77.0027 96.3324 76.9059C96.2368 76.8096 96.4778 73.2231 96.8676 68.9366C97.2574 64.6501 97.5771 61.088 97.5781 61.0211C97.5791 60.9541 99.8826 60.8989 102.697 60.8989H107.814L106.172 63.2205ZM135.82 71.1297C139.708 76.7568 142.765 81.4856 142.614 81.6381C142.256 82.0008 97.3424 82.0013 96.984 81.6386C96.8338 81.4861 99.8947 76.7671 103.787 71.1517L110.863 60.9419L119.808 60.9204L128.753 60.8989L135.82 71.1297ZM142.225 62.4874C142.682 65.3891 143.566 76.6029 143.354 76.8174C143.239 76.9333 140.622 73.3995 137.538 68.9635L131.931 60.8989H136.953H141.974L142.225 62.4874ZM157.308 61.9986C156.938 62.6037 154.956 66.3584 152.904 70.3428C150.851 74.3272 149.08 77.4949 148.969 77.3815C148.758 77.1684 147.358 63.9361 147.341 61.9986C147.331 60.9243 147.453 60.8989 152.656 60.8989H157.98L157.308 61.9986ZM173.776 63.3451L175.346 65.7738L173.597 66.5133C172.634 66.92 171.751 67.2528 171.633 67.2528C171.028 67.2528 158.676 73.7495 155.859 75.5501C154.066 76.6962 152.534 77.5525 152.456 77.4528C152.377 77.3536 154.252 73.5882 156.621 69.0857L160.929 60.8989L166.568 60.9077L172.207 60.9165L173.776 63.3451ZM179.694 61.1677C179.694 61.7435 178.201 64.3197 177.87 64.3144C177.678 64.3109 177.029 63.5411 176.429 62.6037L175.338 60.8989H177.516C178.714 60.8989 179.694 61.0196 179.694 61.1677Z" stroke="black" stroke-width="2" mask="url(#path-2-inside-1_1099_1503)"/>
</g>
</svg>
