<svg width="274" height="107" viewBox="0 0 274 107" fill="none" xmlns="http://www.w3.org/2000/svg">
<circle cx="155" cy="57" r="50" fill="#FFF0EA"/>
<g opacity="0.8">
<path d="M104.302 94.2572L104.302 41.2095L219.623 65.8113V94.0009" stroke="black"/>
<path d="M145.56 49.9224L145.56 94.0007" stroke="black"/>
<path d="M175.287 56.5854L175.287 94.0008" stroke="black"/>
<path d="M198.863 61.1982V94.0007" stroke="black"/>
<path d="M13.0718 75.2931H32.0357L104.816 58.123L219.369 77.087L245.764 79.6497L246.021 94.0007" stroke="black"/>
<path d="M13.0718 75.293V94.0006" stroke="black"/>
<path d="M32.0327 94.0007V64.0172L61.2474 54.7641M104.044 41.2092L61.2474 54.7641M61.2474 54.7641V50.165M113.014 24.0392L97.8939 30.3267M61.2474 50.165V45.5658L97.8939 30.3267M61.2474 50.165L113.014 35.0588L180.925 51.46M97.8939 30.3267V22.7578L117.883 13.2759" stroke="black"/>
<path d="M97.897 26.346L117.886 19.4268L139.925 26.8586" stroke="black"/>
<path d="M42.0264 61.1982L42.0264 94.0007" stroke="black"/>
<path d="M54.0767 57.3545V94.2573" stroke="black"/>
<path d="M72.0117 51.7163V94.5133" stroke="black"/>
<path d="M113.012 43.0031V23.7829L117.881 25.2712M180.923 57.6105V44.5407L140.176 32.086M117.881 25.2712V13.2759L140.176 22.5016V32.086M117.881 25.2712L140.176 32.086" stroke="black"/>
<path d="M78.416 100.151V94.2566M78.416 94.2566V59.1477L118.394 2.51221V12.2504L78.416 94.2566Z" stroke="black"/>
<path d="M118.398 2.25635V9.43188L2.82031 81.9561V67.0925L118.398 2.25635Z" stroke="black"/>
<path d="M2.82031 67.0925L12.8148 75.0368L11.7897 62.4796L25.8845 67.0925V54.279L38.698 58.8919L39.4668 47.1035L52.5366 50.9475V40.1842L65.0937 42.7469V32.2399L78.4197 34.5463V25.0643L91.2332 26.0894L93.5396 16.3512L104.047 18.4013L106.609 9.68816L113.529 11.9946L118.398 2.25635" stroke="black"/>
<path d="M78.416 59.6605L91.2295 68.3736V41.4653L98.9176 51.7161V29.6769L104.555 41.4653L103.53 24.2953L108.4 31.7271L107.118 19.4262L111.731 26.0892L110.45 14.5571L114.806 19.4262L113.525 9.43168L116.6 15.5821L115.831 6.35645L118.394 12.2506" stroke="black"/>
<path d="M118.395 7.63771L125.571 6.1001V14.557L140.69 13.5319V22.5013L154.273 20.4512V29.9331L170.418 27.883V38.6463L185.794 35.8273V46.8469L201.426 42.7466V55.5601L221.672 52.9974L223.465 67.0922L243.454 64.0169L246.017 79.3931L270.106 76.5741" stroke="black"/>
<path d="M118.395 10.4569V2L270.106 76.3181V92.9756L118.395 10.4569Z" stroke="black"/>
<path d="M142.486 33.0083V49.6658" stroke="black"/>
<path d="M163.504 39.4155L164.016 54.2791" stroke="black"/>
<path d="M2.82031 81.1875V100.408" stroke="black"/>
<path d="M270.111 83.7495V100.407" stroke="black"/>
<circle cx="3.07523" cy="99.6382" r="3.07523" fill="black"/>
<circle cx="78.4216" cy="100.151" r="4.10031" fill="black"/>
<circle cx="270.108" cy="99.6382" r="3.07523" fill="black"/>
<path d="M78.4197 94.2568H2.82031" stroke="black"/>
<path d="M78.416 94.001H269.849" stroke="black"/>
</g>
</svg>
