<svg width="101" height="149" viewBox="0 0 101 149" fill="none" xmlns="http://www.w3.org/2000/svg">
<circle cx="51" cy="99" r="50" fill="#FFF0EA"/>
<g opacity="0.8">
<path d="M59.7471 128.662L76.3598 128.08" stroke="black" stroke-width="0.851147"/>
<path d="M73.1982 78.3535L76.1648 89.2586V141.748" stroke="black" stroke-width="0.851147"/>
<path d="M84.8684 83.8779L79.1331 102.635V127.956H81.1108V104.67L84.8684 92.1658L87.835 104.67V127.789M87.835 127.789L90.6038 127.207V115.721L93.3726 121.827H97.1302M87.835 127.789L97.1302 125.753M87.835 127.789V138.985M87.835 127.789L76.1665 128.08" stroke="black" stroke-width="0.851147"/>
<path d="M16.0448 114.267L12.0894 118.338L11.6938 141.311" stroke="black" stroke-width="0.851147"/>
<path d="M59.7471 118.484L70.2289 118.92V85.623" stroke="black" stroke-width="0.851147"/>
<path d="M56.3843 82.7153L56.582 112.959" stroke="black" stroke-width="0.851147"/>
<path d="M57.9707 51.7448V43.6024L59.9484 35.46L61.9261 43.6024V53.1988" stroke="black" stroke-width="0.851147"/>
<path d="M51.0415 43.6025L56.3813 51.1634L70.8186 56.5432L67.4565 61.0506L56.3813 54.653L51.0415 55.6708H44.5151L34.231 58.288" stroke="black" stroke-width="0.851147"/>
<path d="M38.5825 52.7625L42.1424 49.1274" stroke="black" stroke-width="0.851147"/>
<path d="M63.1104 77.481V67.303L64.0992 63.668L65.4836 68.1754V77.9172" stroke="black" stroke-width="0.851147"/>
<path d="M36.4121 79.2253L56.5848 76.1719L67.4622 78.3529L69.4399 80.3885L70.231 83.5873" stroke="black" stroke-width="0.851147"/>
<path d="M58.3687 76.6087V66.1399L59.9509 62.5049L61.7308 67.0123V77.1903M40.7671 78.5609V68.1755L43.7337 64.1043L46.7002 67.1577V77.6622L45.3158 77.8659V68.1755L43.7337 67.1577L42.3493 69.0479V78.3168L40.7671 78.5609Z" stroke="black" stroke-width="0.851147"/>
<path d="M49.0747 66.1396V77.281L50.6569 77.0446V67.012L52.0413 65.1218L53.6234 66.1396V76.6084L55.0078 76.4041V65.1218L52.0413 62.0684L49.0747 66.1396Z" stroke="black" stroke-width="0.851147"/>
<path d="M56.3909 79.8071L36.2183 82.7151L35.8228 85.187L56.3909 82.7151L70.2349 85.6232V83.5875L56.3909 79.8071Z" stroke="black" stroke-width="0.851147"/>
<path d="M33.4151 109.78C29.0238 109.485 19.8021 106.103 19.6424 95.6383C19.4827 85.1734 30.3547 82.0858 35.8106 81.8501" stroke="black" stroke-width="0.851147"/>
<path d="M33.8506 106.84C30.2577 106.607 22.7126 103.937 22.582 95.6755C22.4513 87.4137 31.3466 84.9761 35.8106 84.79" stroke="black" stroke-width="0.851147"/>
<path d="M38.3872 104.962L39.1783 92.7482L39.9694 91.8758V87.95L41.156 86.3506L41.9471 87.95V91.8758L43.727 91.1488V87.5138L44.9137 85.9144L46.1003 87.0776V91.4396L48.8691 90.2764V86.7868L50.2535 85.042L51.4401 86.3506V91.1488L53.0223 92.4574V106.852" stroke="black" stroke-width="0.851147"/>
<path d="M15.8408 89.9351V114.267H32.8491L36.409 79.2256L28.4982 66.7212L15.8408 89.9351Z" stroke="black" stroke-width="0.851147"/>
<path d="M50.8519 140.583H37.0079L36.2168 142.038H49.863L50.8519 140.583Z" stroke="black" stroke-width="0.851147"/>
<path d="M52.6336 137.676H38.7896L37.9985 139.13H51.6447L52.6336 137.676Z" stroke="black" stroke-width="0.851147"/>
<path d="M49.0706 143.492H35.2266L34.4355 144.946H48.0818L49.0706 143.492Z" stroke="black" stroke-width="0.851147"/>
<path d="M26.9165 141.311L31.0697 134.913V117.32L45.1114 93.7651L59.7465 118.338V134.913L57.9666 145.964" stroke="black" stroke-width="0.851147"/>
<path d="M32.0605 147.564L38.1914 135.496V120.811L45.3112 107.579L56.3864 121.974V134.042L48.4755 146.546" stroke="black" stroke-width="0.851147"/>
<path d="M15.0527 129.534V137.822L20.5903 139.276V128.662L17.8215 125.317L15.0527 129.534Z" stroke="black" stroke-width="0.851147"/>
<path d="M22.5615 127.644V135.932L26.9125 137.386V126.771L24.737 123.427L22.5615 127.644Z" stroke="black" stroke-width="0.851147"/>
<path d="M14.4536 122.41H19.9912L18.2113 117.03L14.4536 122.41Z" stroke="black" stroke-width="0.851147"/>
<path d="M22.1719 121.246H27.7095L25.9295 115.866L22.1719 121.246Z" stroke="black" stroke-width="0.851147"/>
<path d="M6.94428 115.139V136.804L2 141.312H26.9192L23.3593 148L57.9692 145.964L97.1279 136.804V121.828H99.1056L100.49 117.611L90.6014 92.3116L89.0193 102.344L84.8661 83.8783L73.1976 78.3531L71.0221 67.3027L69.4399 80.3887L67.4622 78.3531V61.0504L71.0221 56.543L65.4845 50.8724L63.5068 34.8783L61.3313 21.6469L57.1781 33.5697L51.8383 1L45.3119 34.8783L41.3564 21.6469L38.5877 36.4777V52.7626L34.0389 58.2878H38.5877V67.3027L34.0389 63.0861L28.5013 51.5994L10.1086 88.465V115.139H6.94428Z" stroke="black" stroke-width="0.851147"/>
<path d="M58.5601 116.303V89.5489L60.5378 90.2759V85.623L61.7244 86.4955V90.7121L63.7021 91.4391V87.0771L64.8887 87.9495V91.7299L66.2731 92.1661V87.9495L67.6575 88.8219V92.6023L68.8442 93.1839V118.774" stroke="black" stroke-width="0.851147"/>
<circle cx="29.9278" cy="95.0797" r="2.51443" stroke="black" stroke-width="0.851147"/>
<path d="M47.4844 35.46L42.1445 45.7834V57.27L44.1222 55.816V45.7834L47.4844 40.8398L49.4621 44.4748V57.27L51.0442 55.816V42.003L47.4844 35.46Z" stroke="black" stroke-width="0.851147"/>
<path d="M89.0195 101.763L90.6017 115.721L100.49 117.611" stroke="black" stroke-width="0.851147"/>
<path d="M100.49 117.757V135.06L97.1274 136.804" stroke="black" stroke-width="0.851147"/>
</g>
</svg>
