<svg width="120" height="32" viewBox="0 0 120 32" fill="none" xmlns="http://www.w3.org/2000/svg">
<g opacity="0.8">
<path d="M42.9128 31.3084H38.9504V0.34578H49.4592C52.0719 0.34578 54.3329 1.21791 56.2421 2.96202C58.1513 4.70629 59.1059 6.90443 59.1059 9.5566C59.1059 12.2088 58.1513 14.4069 56.2421 16.1511C54.333 17.8954 52.0719 18.7675 49.4592 18.7674H42.9129L42.9128 31.3084ZM42.9128 14.9628H49.5447C51.2102 14.9628 52.5455 14.4005 53.5505 13.2761C54.5555 12.1518 55.058 10.9121 55.058 9.55724C55.058 8.20236 54.5555 6.96268 53.5505 5.83837C52.5455 4.71398 51.2102 4.15178 49.5446 4.15178H42.9129L42.9128 14.9628ZM66.8758 4.80103C66.3309 5.34834 65.6708 5.62195 64.8959 5.62187C64.1209 5.62187 63.4607 5.3481 62.9153 4.80038C62.3698 4.25275 62.0972 3.58959 62.0972 2.81098C62.0972 2.03237 62.3699 1.36928 62.9153 0.821571C63.4607 0.273776 64.1209 0 64.8959 0C65.6708 0 66.331 0.273857 66.8765 0.82149C67.4219 1.3692 67.6946 2.03237 67.6946 2.8109C67.6946 3.58959 67.4217 4.25299 66.8758 4.80111V4.80103ZM66.8769 31.3084H62.9145V10.1194H66.8769V31.3084ZM89.6454 31.3084H84.9942L79.7832 23.4814L74.6589 31.3084H70.0077L77.4583 20.541L70.1798 10.1194H74.659L79.87 17.6008L84.8221 10.1194H89.4734L82.1095 20.541L89.6454 31.3084ZM101.992 32C98.8041 32 96.2128 30.9335 94.2177 28.8004C92.2227 26.6674 91.2251 23.9718 91.2252 20.7139C91.2252 17.6294 92.194 14.9771 94.1317 12.7569C96.0693 10.5367 98.5456 9.42658 101.561 9.42658C104.69 9.42658 107.195 10.45 109.075 12.4969C110.956 14.5437 111.896 17.2828 111.896 20.7139L111.852 21.449H95.1863C95.3011 23.5825 96.0117 25.2691 97.3181 26.5087C98.6244 27.7484 100.153 28.3682 101.905 28.3682C104.747 28.3682 106.671 27.1571 107.676 24.7351L111.207 26.2052C110.518 27.8487 109.383 29.2253 107.805 30.3352C106.226 31.4451 104.288 32 101.992 32ZM107.676 18.163C107.59 16.9515 107.037 15.7981 106.018 14.7028C104.998 13.6073 103.484 13.0597 101.474 13.0597C100.01 13.0597 98.7395 13.521 97.6631 14.4434C96.5866 15.3659 95.8474 16.6058 95.4452 18.163H107.676ZM119.44 31.3084H115.477V0.34578H119.44V31.3084Z" fill="#737373"/>
<path d="M23.7273 9.0587C22.7229 8.03273 21.6317 7.24701 20.4748 6.7013C19.3179 6.15558 17.8553 5.89351 16.1745 5.89351C14.8213 5.89351 13.5332 6.13377 12.333 6.61377C11.1327 7.09377 10.0844 7.77065 9.18961 8.6439C8.27273 9.51714 7.55247 10.5868 7.02857 11.8309C6.50468 13.0751 6.24286 14.4501 6.24286 15.9782C6.24286 17.5062 6.50468 18.8813 7.02857 20.1255C7.55247 21.3696 8.27273 22.4174 9.18961 23.2904C10.1065 24.1634 11.1758 24.8621 12.3766 25.3423C13.5774 25.8226 14.8868 26.0626 16.2618 26.0626C17.7242 26.0626 19.0122 25.8662 20.1034 25.4514C21.1945 25.0366 22.1335 24.4691 22.9195 23.7709C23.4434 23.2904 23.9236 22.701 24.3382 22.0026C24.753 21.2823 25.0805 20.4966 25.3205 19.6234H16.0873V14.3847H31.1486C31.2358 14.734 31.3013 15.1486 31.3668 15.6725C31.4322 16.1964 31.4543 16.6766 31.4543 17.1787C31.4543 19.2522 31.1486 21.1294 30.5374 22.854C29.9262 24.5787 28.9875 26.0844 27.7652 27.4161C26.3901 28.8784 24.753 29.9917 22.8322 30.7992C20.9114 31.6068 18.7065 32 16.24 32C14.0135 32 11.9179 31.607 9.95351 30.7992C7.98909 29.9914 6.26468 28.8784 4.78026 27.4597C3.31792 26.0408 2.16104 24.36 1.28779 22.4174C0.414546 20.4748 0 18.3135 0 16C0 13.6865 0.436364 11.547 1.28779 9.5826C2.13922 7.61818 3.2961 5.93714 4.78026 4.51844C6.2426 3.09948 7.96727 2.00805 9.95351 1.20052C11.9397 0.392987 14.0353 0 16.24 0C18.7722 0 21.0203 0.436364 22.9631 1.30961C24.906 2.18286 26.5865 3.38338 28.0055 4.91143L23.7273 9.0587Z" fill="#737373"/>
</g>
</svg>
