<svg width="100" height="100" viewBox="0 0 100 100" fill="none" xmlns="http://www.w3.org/2000/svg">
<path d="M64.147 64.6622C62.5561 66.2531 60.1085 66.2531 58.5176 64.6622L50.9302 57.0747L56.5596 51.4453L64.147 59.0328C65.7379 60.5013 65.7379 63.0712 64.147 64.6622Z" stroke="#FE5104" stroke-width="1.25" stroke-miterlimit="10" stroke-linecap="round" stroke-linejoin="round"/>
<circle cx="50" cy="50" r="50" fill="#FFEFB7"/>
<path d="M37.7133 34.4351L34.042 38.2288L36.8567 43.0015L41.5071 45.8162L51.9092 56.2184L55.7029 52.4247L45.3008 42.0225L42.4861 37.2498L37.7133 34.4351Z" stroke="#FE5104" stroke-width="1.25" stroke-miterlimit="10" stroke-linecap="round" stroke-linejoin="round"/>
<path d="M53.2548 49.8548L56.5591 46.5506C58.8842 47.4072 61.6989 47.0401 63.5346 45.082C65.3703 43.2464 65.8598 40.4317 65.0032 38.1065L61.8213 41.2883L58.8842 40.554L58.15 37.617L61.3318 34.4351C59.0066 33.5785 56.1919 33.9456 54.3562 35.9037C52.5206 37.7393 52.0311 40.554 52.8877 42.8792L49.5835 46.1834" stroke="black" stroke-width="1.25" stroke-miterlimit="10" stroke-linejoin="round"/>
<path d="M45.6677 50.0991L42.853 52.9138C40.5278 52.0572 37.7131 52.4243 35.8774 54.3824C34.0417 56.218 33.5522 59.0327 34.4089 61.3579L37.5907 58.1761L40.5278 58.9104L41.262 61.8474L38.0802 65.0293C40.4054 65.8859 43.2201 65.5188 45.0558 63.5607C46.8914 61.7251 47.3809 58.9104 46.5243 56.5852L49.4614 53.6481" stroke="black" stroke-width="1.25" stroke-miterlimit="10" stroke-linejoin="round"/>
</svg>
