<svg width="100" height="100" viewBox="0 0 100 100" fill="none" xmlns="http://www.w3.org/2000/svg">
<circle opacity="0.5" cx="50" cy="50" r="50" fill="#B4E1C6"/>
<g clip-path="url(#clip0_1059_1460)">
<path d="M61.0052 51.9998H63.9998C64.3535 51.9998 64.6926 51.8594 64.9426 51.6093C65.1927 51.3593 65.3332 51.0201 65.3332 50.6665V49.3332C65.3332 48.9795 65.1927 48.6404 64.9426 48.3904C64.6926 48.1403 64.3535 47.9998 63.9998 47.9998H61.0038C60.732 46.6484 60.2837 45.3385 59.6705 44.1038L61.7852 41.9865C62.0351 41.7365 62.1756 41.3974 62.1756 41.0438C62.1756 40.6903 62.0351 40.3512 61.7852 40.1012L59.8985 38.2145C59.6485 37.9645 59.3094 37.8241 58.9558 37.8241C58.6023 37.8241 58.2632 37.9645 58.0132 38.2145L55.8932 40.3332C54.6596 39.7197 53.3505 39.2714 51.9998 38.9998V35.9998C51.9998 35.6462 51.8594 35.3071 51.6093 35.057C51.3593 34.807 51.0201 34.6665 50.6665 34.6665H49.3332C48.9795 34.6665 48.6404 34.807 48.3904 35.057C48.1403 35.3071 47.9998 35.6462 47.9998 35.9998V38.9972C46.6487 39.2688 45.3393 39.7171 44.1052 40.3305L41.9852 38.2145C41.7351 37.9645 41.3961 37.8241 41.0425 37.8241C40.689 37.8241 40.3499 37.9645 40.0998 38.2145L38.2132 40.1012C37.9632 40.3512 37.8228 40.6903 37.8228 41.0438C37.8228 41.3974 37.9632 41.7365 38.2132 41.9865L40.3332 44.1052C39.7204 45.3395 39.2721 46.6489 38.9998 47.9998H35.9998C35.6462 47.9998 35.3071 48.1403 35.057 48.3904C34.807 48.6404 34.6665 48.9795 34.6665 49.3332V50.6665C34.6665 51.0201 34.807 51.3593 35.057 51.6093C35.3071 51.8594 35.6462 51.9998 35.9998 51.9998H38.9945C39.2668 53.3508 39.715 54.6602 40.3278 55.8945L38.2078 58.0145C37.9579 58.2645 37.8175 58.6036 37.8175 58.9572C37.8175 59.3107 37.9579 59.6498 38.2078 59.8998L40.0945 61.7852C40.3445 62.0351 40.6836 62.1756 41.0372 62.1756C41.3907 62.1756 41.7298 62.0351 41.9798 61.7852L44.0985 59.6665C45.3346 60.282 46.6463 60.7321 47.9998 61.0052V63.9998C47.9998 64.3535 48.1403 64.6926 48.3904 64.9426C48.6404 65.1927 48.9795 65.3332 49.3332 65.3332H50.6665C51.0201 65.3332 51.3593 65.1927 51.6093 64.9426C51.8594 64.6926 51.9998 64.3535 51.9998 63.9998V61.0052C53.3504 60.7331 54.6594 60.2848 55.8932 59.6718L58.0145 61.7905C58.2645 62.0405 58.6036 62.1809 58.9572 62.1809C59.3107 62.1809 59.6498 62.0405 59.8998 61.7905L61.7852 59.9052C62.0351 59.6551 62.1756 59.3161 62.1756 58.9625C62.1756 58.609 62.0351 58.2699 61.7852 58.0198L59.6665 55.8998C60.2816 54.6641 60.7317 53.3528 61.0052 51.9998V51.9998Z" stroke="black" stroke-width="1.5" stroke-linecap="round" stroke-linejoin="round"/>
<path d="M50 56C53.3137 56 56 53.3137 56 50C56 46.6863 53.3137 44 50 44C46.6863 44 44 46.6863 44 50C44 53.3137 46.6863 56 50 56Z" stroke="#FE5104" stroke-width="1.5" stroke-linecap="round" stroke-linejoin="round"/>
</g>
<defs>
<clipPath id="clip0_1059_1460">
<rect width="32" height="32" fill="white" transform="translate(34 34)"/>
</clipPath>
</defs>
</svg>
