<svg width="100" height="100" viewBox="0 0 100 100" fill="none" xmlns="http://www.w3.org/2000/svg">
<circle cx="50" cy="50" r="50" fill="#E8E8E7"/>
<path d="M66.1063 32.4037C65.7437 32.0419 65.3074 31.7623 64.8272 31.5839C64.347 31.4055 63.834 31.3325 63.3231 31.3698C57.3578 31.8164 51.7538 34.4001 47.5402 38.6463L46.9865 39.2098H39.7639C39.6662 39.2099 39.5696 39.2295 39.4796 39.2673C39.3895 39.3052 39.308 39.3606 39.2396 39.4303L31.5809 47.2703C31.4796 47.3737 31.4111 47.5046 31.3839 47.6467C31.3567 47.7888 31.3721 47.9358 31.428 48.0692C31.484 48.2027 31.5782 48.3166 31.6986 48.3967C31.8191 48.4769 31.9605 48.5197 32.1052 48.5198H39.1514L41.0379 50.4063C38.1757 50.5114 35.4619 51.707 33.4527 53.7481C27.4502 59.8241 32.1787 66.7576 32.2277 66.8262C32.3173 66.9545 32.4454 67.0509 32.5935 67.1013C32.7417 67.1518 32.902 67.1536 33.0512 67.1066C33.2005 67.0596 33.3308 66.9662 33.4233 66.8399C33.5158 66.7137 33.5656 66.5613 33.5654 66.4048C33.5654 64.0479 35.7753 61.8135 38.1077 61.8135C39.2275 61.82 40.2991 62.2704 41.0872 63.0659C41.8754 63.8614 42.3158 64.9371 42.3119 66.0569C42.3142 66.1898 42.3524 66.3195 42.4226 66.4324C42.4928 66.5452 42.5922 66.6369 42.7103 66.6978C42.8285 66.7586 42.9609 66.7863 43.0935 66.7778C43.2261 66.7694 43.3539 66.7252 43.4634 66.6498C44.8759 65.5536 46.021 64.1508 46.8121 62.5474C47.6032 60.9439 48.0197 59.1817 48.0302 57.3937L49.9902 59.3537V66.4048C49.9903 66.5501 50.0335 66.6921 50.1143 66.8128C50.1951 66.9336 50.3098 67.0277 50.444 67.0833C50.5782 67.1389 50.7259 67.1534 50.8684 67.1251C51.0109 67.0968 51.1418 67.0269 51.2446 66.9242L59.0846 59.0842C59.2201 58.9489 59.2975 58.7661 59.3002 58.5746V51.5235L59.8637 50.9698C64.11 46.7563 66.6936 41.1523 67.1402 35.1869C67.1775 34.676 67.1045 34.1631 66.9261 33.6828C66.7477 33.2026 66.4681 32.7664 66.1063 32.4037ZM40.0726 40.6798H45.5165L39.1465 47.0498H33.8496L40.0726 40.6798ZM43.5908 64.6065C43.2748 63.3903 42.5649 62.313 41.5721 61.5427C40.5793 60.7723 39.3594 60.3524 38.1028 60.3484C35.692 60.3484 33.4478 62.0438 32.5266 64.2684C31.6691 62.1271 30.9782 58.3394 34.4866 54.7967C35.5276 53.7381 36.7967 52.9313 38.1971 52.4379C39.5974 51.9445 41.092 51.7776 42.5667 51.9498L46.4867 55.8698C46.6851 57.4498 46.528 59.0542 46.027 60.5658C45.526 62.0773 44.6937 63.4578 43.5908 64.6065ZM57.8302 58.2708L51.4602 64.6408V59.3635L57.8302 52.9935V58.2708ZM58.8102 49.9408L58.0458 50.7052L58.0213 50.7297L50.7252 58.016L40.494 47.7848L47.7999 40.4789L47.8244 40.4544L48.5888 39.6998C52.5479 35.7023 57.8159 33.2666 63.426 32.8398C63.7275 32.8128 64.0312 32.8523 64.3158 32.9555C64.6004 33.0587 64.8588 33.2232 65.0728 33.4372C65.2869 33.6513 65.4513 33.9097 65.5545 34.1942C65.6577 34.4788 65.6972 34.7826 65.6702 35.084C65.2435 40.6941 62.8078 45.9621 58.8102 49.9212V49.9408Z" fill="black"/>
<path d="M54.9974 38C53.8406 38.0006 52.7199 38.4023 51.8261 39.1366C50.9323 39.8708 50.3207 40.8923 50.0956 42.0269C49.8705 43.1616 50.0457 44.3391 50.5915 45.359C51.1373 46.3789 52.0198 47.1781 53.0886 47.6203C54.1575 48.0624 55.3467 48.1203 56.4535 47.7841C57.5603 47.4478 58.5162 46.7382 59.1585 45.7762C59.8007 44.8141 60.0896 43.6591 59.9757 42.508C59.8619 41.3569 59.3525 40.2808 58.5342 39.4632C58.0707 38.9976 57.5195 38.6285 56.9124 38.3773C56.3053 38.1262 55.6544 37.998 54.9974 38ZM57.4184 45.4211C56.8593 45.9811 56.1232 46.33 55.3357 46.4083C54.5481 46.4866 53.7578 46.2893 53.0994 45.8502C52.4409 45.4112 51.9551 44.7574 51.7246 44.0002C51.4941 43.2431 51.5333 42.4295 51.8354 41.698C52.1376 40.9665 52.684 40.3624 53.3816 39.9886C54.0792 39.6148 54.8848 39.4944 55.6612 39.648C56.4375 39.8015 57.1367 40.2195 57.6394 40.8308C58.1422 41.442 58.4175 42.2086 58.4184 43C58.4201 43.4496 58.3326 43.8951 58.1609 44.3107C57.9893 44.7263 57.7369 45.1037 57.4184 45.4211Z" fill="#FE5104"/>
</svg>
