<svg width="197" height="30" viewBox="0 0 197 30" fill="none" xmlns="http://www.w3.org/2000/svg">
<g opacity="0.8">
<path d="M13.0103 21.002C13.28 21.6795 13.1945 22.5477 13.0629 23.0739C12.8327 24.0079 12.2013 24.9616 10.3333 24.9616C8.58364 24.9616 7.51809 23.9487 7.51809 22.4227V19.7062H0V21.8636C0 28.1123 4.9134 30 10.182 30C15.2467 30 19.4168 28.2767 20.0811 23.6001C20.4232 21.1796 20.1732 19.5944 20.0548 19.009C18.8709 13.1419 8.24161 11.3922 7.44574 8.11006C7.33522 7.62604 7.32626 7.12436 7.41943 6.6367C7.61675 5.73558 8.22846 4.75554 9.97808 4.75554C11.6225 4.75554 12.5762 5.76847 12.5762 7.29445V9.03091H19.5681V7.05766C19.5681 0.953738 14.089 0 10.1294 0C5.14361 0 1.07213 1.65095 0.328875 6.22232C0.13155 7.47205 0.0986626 8.59022 0.39465 9.99781C1.61149 15.7202 11.5633 17.3778 13.0103 21.002Z" fill="#737373"/>
<path d="M103.795 21.002C104.065 21.6795 103.98 22.5477 103.848 23.0739C103.618 24.0079 102.986 24.9616 101.118 24.9616C99.3688 24.9616 98.3032 23.9487 98.3032 22.4227V19.7062H90.7852V21.8636C90.7852 28.1123 95.6986 30 100.967 30C106.032 30 110.202 28.2767 110.866 23.6001C111.208 21.1796 110.958 19.5944 110.84 19.009C109.656 13.1419 99.0268 11.3922 98.2309 8.11006C98.1204 7.62604 98.1114 7.12436 98.2046 6.6367C98.4019 5.73558 99.0136 4.75554 100.763 4.75554C102.408 4.75554 103.361 5.76847 103.361 7.29445V9.03091H110.353V7.05766C110.353 0.953738 104.874 0 100.915 0C95.9288 0 91.8573 1.65095 91.114 6.22232C90.9167 7.47205 90.8838 8.59022 91.1798 9.99781C92.3966 15.7202 102.348 17.3778 103.795 21.002Z" fill="#737373"/>
<path d="M29.9933 0.894639L24.7971 28.9082H32.3678L36.2025 3.48618H36.3604L40.0898 28.9082H47.6211L42.4577 0.888062L29.9933 0.894639ZM72.3196 0.894639L68.8664 22.311H68.702L65.2553 0.894639H53.8302L53.2119 28.9082H60.2236L60.3946 3.72297H60.5524L65.229 28.9082H72.3393L77.0225 3.72954H77.1738L77.3514 28.9082H84.3564L83.7381 0.888062L72.3196 0.894639Z" fill="#737373"/>
<path d="M127.604 24.7117C129.551 24.7117 130.149 23.3699 130.287 22.6859C130.346 22.3833 130.353 21.9755 130.353 21.6137V0.894582H137.444V20.9757C137.445 21.5902 137.423 22.2046 137.378 22.8174C136.884 28.0465 132.754 29.7435 127.604 29.7435C122.447 29.7435 118.316 28.0465 117.823 22.8174C117.803 22.5411 117.75 21.4887 117.757 20.9757V0.888005H124.848V21.6071C124.841 21.9755 124.854 22.3833 124.913 22.6859C125.045 23.3699 125.65 24.7117 127.604 24.7117ZM161.859 0.894582L162.241 22.8832H162.089L155.643 0.894582H145.251V28.6122H152.138L151.756 5.8606H151.907L158.82 28.6122H168.798V0.894582H161.859ZM186.032 24.4223C188.057 24.4223 188.768 23.1397 188.893 22.3833C188.952 22.0741 188.959 21.6795 188.959 21.3309V17.2528H186.084V13.1748H196.01V20.6863C196.01 21.2125 195.996 21.594 195.911 22.528C195.451 27.6321 191.024 29.4541 186.058 29.4541C181.092 29.4541 176.672 27.6321 176.205 22.528C176.126 21.594 176.106 21.2125 176.106 20.6863V8.89941C176.106 8.39952 176.172 7.51813 176.224 7.0577C176.849 1.81543 181.092 0.131592 186.058 0.131592C191.024 0.131592 195.378 1.80228 195.891 7.05113C195.983 7.94567 195.957 8.89283 195.957 8.89283V9.83341H188.893V8.26139C188.893 8.26139 188.893 7.60364 188.807 7.19583C188.676 6.57755 188.149 5.15681 186.005 5.15681C183.966 5.15681 183.368 6.50519 183.216 7.19583C183.131 7.56417 183.098 8.06406 183.098 8.51791V21.3243C183.098 21.6795 183.111 22.0741 183.164 22.3899C183.295 23.1397 184.006 24.4223 186.032 24.4223Z" fill="#737373"/>
</g>
</svg>
