<svg width="26" height="27" viewBox="0 0 26 27" fill="none" xmlns="http://www.w3.org/2000/svg">
<path d="M14 6.52632C14 3.47422 16.4742 1 19.5263 1C22.5784 1 25.0526 3.47422 25.0526 6.52632C25.0526 8.79376 23.635 10.5373 22.2895 12.0526C21.158 13.3269 20.7105 16 17.9474 16C17.0586 16 16.2384 15.7062 15.5786 15.2105" stroke="black" stroke-width="1.5" stroke-linecap="round" stroke-linejoin="round"/>
<path d="M17.1579 6.52614C17.1579 5.2181 18.2182 4.15771 19.5263 4.15771C20.8344 4.15771 21.8947 5.2181 21.8947 6.52614C21.8947 7.13277 21.6667 7.68603 21.2917 8.10508" stroke="black" stroke-width="1.5" stroke-linecap="round" stroke-linejoin="round"/>
<path d="M2 16.9999V12.9999C2 12.4476 2.44772 11.9999 3 11.9999H5.69722C5.89465 11.9999 6.08766 11.9414 6.25192 11.8319L10.4453 9.03633C11.1099 8.59329 12 9.06968 12 9.86838V20.1314C12 20.9301 11.1099 21.4065 10.4453 20.9634L6.25192 18.1678C6.08766 18.0583 5.89465 17.9999 5.69722 17.9999H3C2.44772 17.9999 2 17.5522 2 16.9999Z" fill="#FE5104" stroke="black"/>
</svg>
