<svg width="26" height="28" viewBox="0 0 26 28" fill="none" xmlns="http://www.w3.org/2000/svg">
<rect x="-0.5" y="0.5" width="15.129" height="27" rx="2.5" transform="matrix(-1 0 0 1 15.129 0)" fill="#D5F0FF" stroke="black"/>
<path fill-rule="evenodd" clip-rule="evenodd" d="M6 14.647C6.32027 14.3817 6.66775 14.1206 7.04037 13.8713C10.027 11.8731 13.2933 11.4091 16.5365 13.4544C19.5152 15.3328 22.3041 14.9169 24.7738 13.0788C25.2353 12.7353 25.6458 12.3675 26 12V13.0981C25.7474 13.3279 25.4749 13.5537 25.1835 13.7706C22.5005 15.7675 19.4217 16.2266 16.1734 14.1782C13.1942 12.2995 10.1994 12.7249 7.41996 14.5844C6.89209 14.9376 6.41766 15.3161 6.00471 15.6939C6.00313 15.6953 6.00157 15.6968 6 15.6982V14.647ZM8.2068 15.6694C10.8674 14.2866 13.7107 14.1637 16.5365 15.9457C19.1154 17.572 21.552 17.4785 23.7624 16.2313V17.1523C21.4344 18.3426 18.8619 18.365 16.1734 16.6695C13.4734 14.9668 10.7605 15.1567 8.2068 16.5915V15.6694Z" fill="black"/>
<path fill-rule="evenodd" clip-rule="evenodd" d="M6 19.647C6.32027 19.3817 6.66775 19.1206 7.04037 18.8713C10.027 16.8731 13.2933 16.4091 16.5365 18.4544C19.5152 20.3328 22.3041 19.9169 24.7738 18.0788C25.2353 17.7353 25.6458 17.3675 26 17V18.0981C25.7474 18.3279 25.4749 18.5537 25.1835 18.7706C22.5005 20.7675 19.4217 21.2266 16.1734 19.1782C13.1942 17.2995 10.1994 17.7249 7.41996 19.5844C6.89209 19.9376 6.41766 20.3161 6.00471 20.6939C6.00313 20.6953 6.00157 20.6968 6 20.6982V19.647ZM8.2068 20.6694C10.8674 19.2866 13.7107 19.1637 16.5365 20.9457C19.1154 22.572 21.552 22.4785 23.7624 21.2313V22.1523C21.4344 23.3426 18.8619 23.365 16.1734 21.6695C13.4734 19.9668 10.7605 20.1567 8.2068 21.5915V20.6694Z" fill="black"/>
</svg>
