<svg width="24" height="24" viewBox="0 0 24 24" fill="none" xmlns="http://www.w3.org/2000/svg">
<path d="M2 13.9999V9.99986C2 9.44758 2.44772 8.99986 3 8.99986H5.69722C5.89465 8.99986 6.08766 8.94142 6.25192 8.83191L10.4453 6.03633C11.1099 5.59329 12 6.06968 12 6.86838V17.1314C12 17.9301 11.1099 18.4065 10.4453 17.9634L6.25192 15.1678C6.08766 15.0583 5.89465 14.9999 5.69722 14.9999H3C2.44772 14.9999 2 14.5522 2 13.9999Z" fill="#C4C4C4" stroke="black"/>
<path d="M16.5 7.5C16.5 7.5 18 9 18 11.5C18 14 16.5 15.5 16.5 15.5" stroke="black" stroke-width="1.5" stroke-linecap="round" stroke-linejoin="round"/>
<path d="M19.5 4.5C19.5 4.5 22 7 22 11.5C22 16 19.5 18.5 19.5 18.5" stroke="black" stroke-width="1.5" stroke-linecap="round" stroke-linejoin="round"/>
</svg>
