<svg width="27" height="27" viewBox="0 0 27 27" fill="none" xmlns="http://www.w3.org/2000/svg">
<path d="M24.6881 24.9244C23.4468 26.1657 21.5371 26.1657 20.2958 24.9244L14.3756 19.0042L18.768 14.6118L24.6881 20.532C25.9295 21.6778 25.9295 23.683 24.6881 24.9244Z" stroke="#FE5104" stroke-width="1.25" stroke-miterlimit="10" stroke-linecap="round" stroke-linejoin="round"/>
<path d="M4.06308 1.33936L1.19849 4.29943L3.39467 8.0234L7.02316 10.2196L15.1395 18.3359L18.0996 15.3759L9.98324 7.25951L7.78705 3.53554L4.06308 1.33936Z" stroke="#FE5104" stroke-width="1.25" stroke-miterlimit="10" stroke-linecap="round" stroke-linejoin="round"/>
<path d="M16.1898 13.3708L18.768 10.7927C20.5822 11.4611 22.7784 11.1746 24.2107 9.64682C25.643 8.21453 26.0249 6.01834 25.3565 4.2041L22.8739 6.68675L20.5822 6.11383L20.0093 3.82215L22.492 1.33951C20.6777 0.671102 18.4815 0.957561 17.0492 2.48534C15.6169 3.91764 15.235 6.11383 15.9034 7.92807L13.3253 10.5062" stroke="#034EA2" stroke-width="1.25" stroke-miterlimit="10" stroke-linejoin="round"/>
<path d="M10.2697 13.5615L8.07347 15.7577C6.25923 15.0893 4.06304 15.3758 2.63074 16.9035C1.19845 18.3358 0.8165 20.532 1.48491 22.3463L3.96755 19.8636L6.25923 20.4365L6.83214 22.7282L4.3495 25.2109C6.16374 25.8793 8.35993 25.5928 9.79222 24.065C11.2245 22.6327 11.6065 20.4365 10.9381 18.6223L13.2297 16.3306" stroke="#034EA2" stroke-width="1.25" stroke-miterlimit="10" stroke-linejoin="round"/>
</svg>
