<svg width="161" height="28" viewBox="0 0 161 28" fill="none" xmlns="http://www.w3.org/2000/svg">
<g opacity="0.8">
<path fill-rule="evenodd" clip-rule="evenodd" d="M143.774 11.1885L148.777 5.84613C149.067 5.45393 149.211 5.17931 149.211 4.94416C149.211 4.55195 148.874 4.3949 147.813 4.3949H146.551V1.02213H160.215V4.3949H158.42C156.346 4.3949 155.961 4.70815 153.068 8.35554L145.153 16.9033V22.1195C145.153 23.4541 145.826 23.9235 147.756 23.9235H150.744V27.1778H131.605V23.9235H134.593C136.521 23.9235 137.196 23.4541 137.196 22.1195V16.9033L127.873 6.59021C126.333 4.7871 126.546 4.3949 122.256 4.3949V1.02213H139.565V4.3949H138.333C137.079 4.3949 136.547 4.63005 136.547 5.10035C136.547 5.49341 136.933 5.80665 137.174 6.1199L141.891 11.2606C142.451 11.8433 143.135 11.9188 143.774 11.1885ZM27.643 1.02127H31.8182V10.4324H27.9622C27.6207 8.55122 26.4432 7.81916 25.3696 6.83222C23.4326 5.05229 19.2377 3.57016 15.7096 3.57016C11.1559 3.57016 7.31282 4.98277 7.31282 7.05964C7.31282 12.8251 33.3552 8.23711 33.3552 19.1381C33.3552 24.8238 27.7769 28 17.759 28C14.2909 28 9.04297 26.9238 5.94655 25.2795C4.97591 24.7191 4.56397 25.8098 4.38203 27.177H0.101269V17.4517H3.97352C4.82744 19.9225 6.00405 20.4314 7.08625 21.4124C8.96402 23.1382 13.4336 24.3938 17.5324 24.3535C23.7124 24.2925 25.8373 22.9417 25.8373 20.9807C25.8373 19.0205 23.7355 18.5494 16.9634 17.4912L11.2134 16.5497C4.72445 15.5688 0 14.1184 0 8.94256C0 3.57016 5.97658 0.197385 15.4263 0.197385C19.4084 0.197385 22.74 0.729481 25.9377 2.53687C26.8234 3.11273 27.6541 3.18139 27.643 1.02127ZM109.125 16.778L109.207 6.31815C109.207 4.94587 108.493 4.47557 106.453 4.47557H104.056V1.22123H119.307V4.47557H117.319C115.278 4.47557 114.563 4.94673 114.563 6.31815V27.3761L108.595 27.3289L89.2643 9.02409V22.3178C89.2643 23.6514 89.9783 24.1604 92.0183 24.1604H94.6719V27.3761H78.8336V24.1604H81.458C83.4979 24.1604 84.212 23.6506 84.212 22.3178V6.31815C84.212 4.94587 83.4979 4.47557 81.458 4.47557H78.8336V1.22123H92.5272L109.125 16.778ZM58.0417 0C45.8877 0 38.2797 5.37326 38.2797 13.9991C38.2797 22.4705 45.7821 27.8026 57.6709 27.8026C70.2987 27.8026 77.6441 22.5486 77.6441 13.5683C77.6449 5.49083 69.7185 0 58.0417 0ZM57.7653 24.3921C51.0378 24.3921 47.1707 20.5095 47.1707 13.8035C47.1707 7.25532 51.206 3.37277 58.1018 3.37277C64.7169 3.37277 68.584 7.33427 68.584 14.079C68.584 20.6666 64.6602 24.3921 57.7653 24.3921Z" fill="#737373"/>
</g>
</svg>
