<svg width="36" height="36" viewBox="0 0 36 36" fill="none" xmlns="http://www.w3.org/2000/svg">
<path d="M32 0H4C1.79 0 0 1.79 0 4V32C0 34.21 1.79 36 4 36H32C34.21 36 36 34.21 36 32V4C36 1.79 34.21 0 32 0ZM28.1 13.028C28.1 13.2 28.1 13.37 28.1 13.714C28.1 20.228 23.128 27.772 14.042 27.772C11.3 27.772 8.728 26.914 6.5 25.544C6.842 25.544 7.358 25.544 7.7 25.544C9.928 25.544 12.158 24.686 13.872 23.486C11.644 23.486 9.93 21.944 9.244 20.058C9.586 20.058 9.93 20.23 10.102 20.23C10.616 20.23 10.96 20.23 11.474 20.058C9.246 19.544 7.532 17.658 7.532 15.258C8.218 15.6 8.904 15.772 9.76 15.944C8.388 14.744 7.532 13.372 7.532 11.658C7.532 10.8 7.704 9.944 8.218 9.258C10.618 12.172 14.218 14.23 18.332 14.4C18.332 14.058 18.16 13.714 18.16 13.2C18.16 10.458 20.388 8.228 23.132 8.228C24.504 8.228 25.874 8.742 26.732 9.77C27.932 9.598 28.96 9.084 29.818 8.57C29.476 9.77 28.618 10.628 27.59 11.312C28.618 11.14 29.476 10.97 30.504 10.454C29.814 11.486 28.958 12.342 28.1 13.028Z" fill="#1CA0F2"/>
</svg>
