<svg width="44" height="44" viewBox="0 0 44 44" fill="none" xmlns="http://www.w3.org/2000/svg">
<path d="M40.6007 6.78448L40.6116 7.05886L40.6154 7.33333V32.3795C40.6154 36.928 36.928 40.6154 32.3795 40.6154H7.33333C7.1493 40.6154 6.96649 40.6102 6.78503 40.6C8.08438 42.6434 10.3709 44 12.9744 44H32.3795C38.7974 44 44 38.7974 44 32.3795V12.9744C44 10.3719 42.6444 8.08607 40.6007 6.78448ZM7.33333 0C3.28324 0 0 3.28324 0 7.33333V31.0256C0 35.0757 3.28324 38.359 7.33333 38.359H31.0256C35.0757 38.359 38.359 35.0757 38.359 31.0256V7.33333C38.359 3.28324 35.0757 0 31.0256 0H7.33333ZM3.38462 12.4103H34.9744V31.0256C34.9744 33.2065 33.2065 34.9744 31.0256 34.9744H7.33333C5.15251 34.9744 3.38462 33.2065 3.38462 31.0256V12.4103ZM7.33333 3.38462H31.0256C33.2065 3.38462 34.9744 5.15251 34.9744 7.33333V9.02564H3.38462V7.33333C3.38462 5.15251 5.15251 3.38462 7.33333 3.38462Z" fill="url(#paint0_linear_569_666)"/>
<defs>
<linearGradient id="paint0_linear_569_666" x1="16.0769" y1="0.0496938" x2="54.0776" y2="41.8579" gradientUnits="userSpaceOnUse">
<stop stop-color="#FE5104"/>
<stop offset="1" stop-color="#FF8C46"/>
</linearGradient>
</defs>
</svg>
