<svg width="56" height="56" viewBox="0 0 56 56" fill="none" xmlns="http://www.w3.org/2000/svg">
<rect opacity="0.3" width="56" height="56" rx="8" fill="#C4C4C4"/>
<path d="M37.2787 25.4785V19.2789C37.2787 14.1624 33.1163 10 27.9999 10C22.8836 10 18.7212 14.1624 18.7212 19.2788V25.4785C16.7329 27.7365 15.6411 30.6239 15.6411 33.6412C15.6411 40.4559 21.1853 46 27.9999 46C34.8146 46 40.3588 40.4559 40.3588 33.6412C40.3588 30.6239 39.267 27.7366 37.2787 25.4785ZM20.1554 19.2788C20.1554 14.9532 23.6745 11.4342 27.9999 11.4342C32.3254 11.4342 35.8445 14.9533 35.8445 19.2788V24.0919C35.3162 23.6574 34.753 23.2675 34.1583 22.9253V19.2788C34.1583 15.883 31.3958 13.1204 27.9999 13.1204C24.6042 13.1204 21.8416 15.883 21.8416 19.2788V22.9253C21.2469 23.2675 20.6836 23.6573 20.1554 24.0919V19.2788ZM32.724 19.2788V22.2198C31.2335 21.6044 29.6212 21.2823 27.9999 21.2823C26.3787 21.2823 24.7664 21.6044 23.2759 22.2198V19.2788C23.2759 16.6739 25.3951 14.5547 27.9999 14.5547C30.6047 14.5547 32.724 16.6739 32.724 19.2788ZM27.9999 44.5658C21.9761 44.5658 17.0753 39.6651 17.0753 33.6412C17.0753 30.8904 18.1018 28.2618 19.9655 26.2398C20.8105 25.3231 21.7958 24.5633 22.8945 23.9814C24.4565 23.154 26.2219 22.7167 27.9999 22.7167C29.778 22.7167 31.5434 23.1541 33.1054 23.9814C34.2039 24.5633 35.1894 25.3232 36.0343 26.2398H36.0343C37.8981 28.2619 38.9245 30.8904 38.9245 33.6412C38.9245 39.665 34.0238 44.5658 27.9999 44.5658Z" fill="black"/>
<path d="M28 34L28 39" stroke="black" stroke-width="2" stroke-linecap="round"/>
</svg>
