<svg width="56" height="56" viewBox="0 0 56 56" fill="none" xmlns="http://www.w3.org/2000/svg">
<rect opacity="0.3" width="56" height="56" rx="8" fill="#C4C4C4"/>
<path d="M28.3639 11C20.995 11 15 16.995 15 24.3639C15 27.4044 15.9964 30.268 17.8817 32.6451C20.3227 35.7227 27.421 43.0303 27.7221 43.3398L28.3639 44L29.0057 43.3399C29.3067 43.0303 36.4072 35.721 38.8487 32.6424C40.7322 30.2673 41.7277 27.4046 41.7277 24.3639C41.7277 16.995 35.7327 11 28.3639 11ZM37.446 31.53C35.4806 34.0083 30.2026 39.5215 28.3639 41.4283C26.5253 39.5215 21.2493 34.01 19.2843 31.5326C17.6526 29.4753 16.7902 26.9964 16.7902 24.3639C16.7902 17.9821 21.9821 12.7902 28.3639 12.7902C34.7456 12.7902 39.9375 17.9821 39.9375 24.3639C39.9375 26.9965 39.0759 29.4745 37.446 31.53Z" fill="black"/>
<path d="M30.753 21.3516L28.364 16.5322L25.975 21.3516L20.8438 21.9428L24.4759 25.6803L23.4202 30.9272L28.364 28.2221L33.3078 30.9272L32.2521 25.6803L35.8843 21.9428L30.753 21.3516ZM30.7944 27.5113L28.364 26.1815L25.9335 27.5113L26.4169 25.1091L24.6634 23.3048L27.1466 23.0187L28.3639 20.563L29.5813 23.0187L32.0644 23.3048L30.311 25.1091L30.7944 27.5113Z" fill="black"/>
</svg>
