<svg width="36" height="36" viewBox="0 0 36 36" fill="none" xmlns="http://www.w3.org/2000/svg">
<path d="M18.3639 1C10.995 1 5 6.99497 5 14.3639C5 17.4044 5.99645 20.268 7.88166 22.6451C10.3227 25.7227 17.421 33.0303 17.7221 33.3398L18.3639 34L19.0057 33.3399C19.3067 33.0303 26.4072 25.721 28.8487 22.6424C30.7322 20.2673 31.7277 17.4046 31.7277 14.3639C31.7277 6.99497 25.7327 1 18.3639 1ZM27.446 21.53C25.4806 24.0083 20.2026 29.5215 18.3639 31.4283C16.5253 29.5215 11.2493 24.01 9.28431 21.5326C7.6526 19.4753 6.79024 16.9964 6.79024 14.3639C6.79024 7.98211 11.9821 2.79024 18.3639 2.79024C24.7456 2.79024 29.9375 7.98211 29.9375 14.3639C29.9375 16.9965 29.0759 19.4745 27.446 21.53Z" fill="black"/>
<path d="M20.753 11.3516L18.364 6.53223L15.975 11.3516L10.8438 11.9428L14.4759 15.6803L13.4202 20.9272L18.364 18.2221L23.3078 20.9272L22.2521 15.6803L25.8843 11.9428L20.753 11.3516ZM20.7944 17.5113L18.364 16.1815L15.9335 17.5113L16.4169 15.1091L14.6634 13.3048L17.1466 13.0187L18.3639 10.563L19.5813 13.0187L22.0644 13.3048L20.311 15.1091L20.7944 17.5113Z" fill="black"/>
</svg>
