<svg width="36" height="36" viewBox="0 0 36 36" fill="none" xmlns="http://www.w3.org/2000/svg">
<path d="M35.3785 10.3374L26.9478 1.89329C26.545 1.48935 26.008 1.2666 25.4365 1.2666C24.9857 1.2666 24.5476 1.40961 24.1846 1.67223L23.9508 1.80555L13.1031 3.29755C12.8546 3.30676 12.614 3.34615 12.3839 3.41135L12.0033 3.05347C11.9876 3.03881 11.9716 3.02438 11.9554 3.01045C11.5683 2.67741 11.074 2.49404 10.5633 2.49404C9.99195 2.49404 9.45494 2.7168 9.05149 3.12134L0.621918 11.5644C-0.131781 12.3198 -0.20995 13.5271 0.439523 14.373C0.461943 14.402 0.485334 14.4303 0.509693 14.4576L4.12682 18.4956C4.24401 18.984 4.40471 19.4874 4.60553 20.0032C3.72821 21.0598 3.78348 22.6349 4.77338 23.6251C4.77508 23.6268 4.77678 23.6284 4.77847 23.6301L4.79023 23.6417C5.287 24.1367 5.94314 24.4123 6.6423 24.4246C6.62933 24.5329 6.62036 24.6418 6.62036 24.7525C6.62036 25.4703 6.89935 26.1451 7.40606 26.6535L7.41684 26.6644C7.41854 26.6661 7.42011 26.6678 7.42181 26.6695C7.93046 27.1781 8.60671 27.4585 9.32611 27.4585C9.4095 27.4585 9.49191 27.4539 9.57395 27.4463C9.58195 27.4554 9.59056 27.4645 9.59868 27.4737C9.59722 27.5102 9.59334 27.5463 9.59334 27.5829C9.59334 28.3009 9.87245 28.9759 10.3793 29.4842L10.3904 29.4956C10.392 29.4972 10.3935 29.4986 10.395 29.5002C10.9036 30.0087 11.5798 30.2888 12.2992 30.2888C12.301 30.2888 12.3027 30.2886 12.3046 30.2886L12.5612 30.5453C12.5911 31.219 12.8643 31.8484 13.3443 32.3284C13.3473 32.3313 13.3504 32.3344 13.3535 32.3375L13.3628 32.3467C13.8418 32.823 14.4691 33.0942 15.1399 33.1239L15.8494 33.8336C16.4291 34.4132 17.2016 34.7325 18.0245 34.7325C18.9715 34.7325 19.8516 34.3067 20.4391 33.5643C20.7586 33.1608 20.9597 32.6976 21.0453 32.2178L21.491 32.6636C22.0796 33.2521 22.8927 33.5899 23.7217 33.5899C24.4062 33.5899 25.0756 33.3584 25.6068 32.9378C26.1969 32.4709 26.5926 31.8054 26.7254 31.0732C27.2945 31.56 28.0302 31.8354 28.7787 31.8354C29.463 31.8354 30.1326 31.6038 30.6638 31.1833C31.3521 30.6386 31.776 29.8238 31.8268 28.948C31.8741 28.1342 31.5971 27.337 31.0629 26.7319C31.557 26.6448 32.0254 26.4372 32.4183 26.1263C33.1067 25.5816 33.5305 24.7668 33.5813 23.891C33.6322 23.0137 33.3064 22.1555 32.6875 21.5366L31.5443 20.3934C31.586 20.352 31.6259 20.3086 31.6626 20.2618C33.8033 17.534 34.9561 15.5046 35.3811 13.7091C35.4145 13.6505 35.4439 13.5894 35.4689 13.5264L35.705 12.9315C36.1926 12.1055 36.0701 11.0306 35.3785 10.3374ZM6.69065 22.9727C6.37373 22.9727 6.05694 22.8518 5.81491 22.61L5.80183 22.5971C5.31839 22.1135 5.31839 21.3293 5.80183 20.8458L6.77064 19.877C7.01242 19.6351 7.32922 19.5141 7.64626 19.5141C7.9633 19.5141 8.28022 19.6351 8.52224 19.877L8.53497 19.89C9.01877 20.3735 9.01877 21.1578 8.53497 21.6413L7.56639 22.61C7.32449 22.8517 7.00757 22.9727 6.69065 22.9727ZM10.202 25.6412C9.96008 25.8831 9.64316 26.004 9.32611 26.004C9.0092 26.004 8.69228 25.8831 8.45025 25.6412L8.43741 25.6282C7.95373 25.1445 7.95373 24.3605 8.43741 23.8768L10.7294 21.5848C10.9714 21.3429 11.2884 21.222 11.6054 21.222C11.9224 21.222 12.2394 21.3429 12.4813 21.5848L12.4942 21.5977C12.9778 22.0814 12.9778 22.8656 12.4942 23.3491L10.202 25.6412ZM13.1748 28.4718C12.9332 28.7135 12.6163 28.8344 12.2992 28.8344C11.9822 28.8344 11.6653 28.7135 11.4235 28.4718L11.4104 28.4587C10.9267 27.9751 10.9267 27.1909 11.4104 26.7072L12.8937 25.2237C13.1356 24.9819 13.4524 24.8611 13.7694 24.8611C14.0863 24.8611 14.4033 24.9819 14.6453 25.2237L14.6584 25.2368C15.1418 25.7203 15.1418 26.5047 14.6584 26.9882L13.1748 28.4718ZM15.2613 31.6754C14.9444 31.6754 14.6276 31.5544 14.3857 31.3126L14.3726 31.2998C13.8888 30.8161 13.8888 30.0318 14.3726 29.5482L15.0473 28.8735C15.2892 28.6317 15.6061 28.5108 15.9231 28.5108C16.24 28.5108 16.5571 28.6317 16.799 28.8735L16.812 28.8866C17.2954 29.3703 17.2954 30.1544 16.812 30.638L16.1372 31.3126C15.8951 31.5544 15.5782 31.6754 15.2613 31.6754ZM19.299 32.6618C18.9737 33.0727 18.4992 33.2782 18.0246 33.2782C17.6089 33.2782 17.1932 33.1205 16.8779 32.8053L16.7526 32.6799C16.8995 32.5818 17.0377 32.4687 17.1654 32.341L17.8399 31.6665C18.315 31.1913 18.5728 30.5811 18.6179 29.9583L19.1366 30.4769C19.7243 31.0644 19.8148 32.0101 19.299 32.6618ZM31.6592 22.5648C32.3346 23.2401 32.2868 24.3756 31.5158 24.9859C31.227 25.2145 30.8808 25.3239 30.5333 25.3239C30.0965 25.3239 29.6582 25.1508 29.3309 24.8235L23.4509 18.9434C23.2982 18.7907 23.0982 18.7144 22.8981 18.7144C22.6982 18.7144 22.498 18.7907 22.3454 18.9434C22.0362 19.2525 22.0362 19.7536 22.3454 20.0625L29.9046 27.6218C30.5798 28.2971 30.5321 29.4326 29.7612 30.0429C29.4724 30.2714 29.1261 30.3809 28.7787 30.3809C28.3419 30.3809 27.9035 30.2077 27.5763 29.8805L20.0525 22.3567C19.8979 22.2021 19.6951 22.1246 19.4923 22.1246C19.2895 22.1246 19.0868 22.2021 18.932 22.3567C18.6271 22.6616 18.6271 23.156 18.932 23.4608L24.8475 29.3763C25.5228 30.0516 25.4751 31.1871 24.7042 31.7973C24.4154 32.0259 24.0691 32.1353 23.7217 32.1353C23.2849 32.1353 22.8466 31.9622 22.5193 31.6349L16.4063 25.5218C16.2987 25.0402 16.0606 24.5822 15.6867 24.2082L15.6735 24.195C15.2515 23.7732 14.7137 23.5116 14.1327 23.4336C14.2482 23.1308 14.3111 22.8072 14.3111 22.4733C14.3111 21.7542 14.0311 21.0778 13.5225 20.5693C13.5211 20.5678 13.5196 20.5663 13.5182 20.5649L13.5068 20.5536C12.9985 20.0465 12.3232 19.7674 11.6053 19.7674C11.1296 19.7674 10.6739 19.8923 10.272 20.1224C10.157 19.6518 9.91899 19.2189 9.56862 18.8669L9.5599 18.858C9.55675 18.8549 9.55359 18.8516 9.55044 18.8484C9.0418 18.3398 8.36554 18.0596 7.64614 18.0596C6.92662 18.0596 6.25036 18.3399 5.74183 18.8488L5.73759 18.853C5.64367 18.5607 5.56392 18.2711 5.50175 17.9852C5.47982 17.8852 5.43776 17.7911 5.37535 17.7099L1.59304 13.4872C1.38507 13.2165 1.40979 12.8335 1.65085 12.5918L10.0813 4.14821C10.2137 4.01538 10.3881 3.94836 10.5634 3.94836C10.721 3.94836 10.879 4.00278 11.0071 4.11294L11.0738 4.1756C10.5093 4.73102 10.1582 5.50266 10.1582 6.35513C10.1582 8.03887 11.5249 9.40907 13.2072 9.41501L18.5776 9.48312L31.6592 22.5648ZM34.4067 12.2598L34.117 12.9898C34.0546 13.071 34.0125 13.165 33.9906 13.2651C33.5809 15.1449 32.137 17.3014 30.5185 19.3637C28.4594 17.3047 19.1958 8.03644 19.1958 8.03644L13.2181 7.96058C12.3351 7.96058 11.6125 7.23802 11.6125 6.35501C11.6125 5.472 12.3351 4.74957 13.2181 4.74957L24.4264 3.20799C24.4276 3.20787 24.4287 3.20726 24.4295 3.20654L24.9926 2.88538C25.1207 2.77521 25.2786 2.7208 25.4363 2.7208C25.6113 2.7208 25.7859 2.78794 25.9184 2.92064L34.3488 11.3643C34.59 11.6061 34.6147 11.989 34.4067 12.2598Z" fill="black"/>
</svg>
