<svg width="56" height="56" viewBox="0 0 56 56" fill="none" xmlns="http://www.w3.org/2000/svg">
<rect opacity="0.3" width="56" height="56" rx="8" fill="#C4C4C4"/>
<path d="M45.3785 20.3374L36.9478 11.8933C36.545 11.4894 36.008 11.2666 35.4365 11.2666C34.9857 11.2666 34.5476 11.4096 34.1846 11.6722L33.9508 11.8055L23.1031 13.2976C22.8546 13.3068 22.614 13.3462 22.3839 13.4114L22.0033 13.0535C21.9876 13.0388 21.9716 13.0244 21.9554 13.0104C21.5683 12.6774 21.074 12.494 20.5633 12.494C19.9919 12.494 19.4549 12.7168 19.0515 13.1213L10.6219 21.5644C9.86822 22.3198 9.79005 23.5271 10.4395 24.373C10.4619 24.402 10.4853 24.4303 10.5097 24.4576L14.1268 28.4956C14.244 28.984 14.4047 29.4874 14.6055 30.0032C13.7282 31.0598 13.7835 32.6349 14.7734 33.6251C14.7751 33.6268 14.7768 33.6284 14.7785 33.6301L14.7902 33.6417C15.287 34.1367 15.9431 34.4123 16.6423 34.4246C16.6293 34.5329 16.6204 34.6418 16.6204 34.7525C16.6204 35.4703 16.8993 36.1451 17.4061 36.6535L17.4168 36.6644C17.4185 36.6661 17.4201 36.6678 17.4218 36.6695C17.9305 37.1781 18.6067 37.4585 19.3261 37.4585C19.4095 37.4585 19.4919 37.4539 19.574 37.4463C19.582 37.4554 19.5906 37.4645 19.5987 37.4737C19.5972 37.5102 19.5933 37.5463 19.5933 37.5829C19.5933 38.3009 19.8725 38.9759 20.3793 39.4842L20.3904 39.4956C20.392 39.4972 20.3935 39.4986 20.395 39.5002C20.9036 40.0087 21.5798 40.2888 22.2992 40.2888C22.301 40.2888 22.3027 40.2886 22.3046 40.2886L22.5612 40.5453C22.5911 41.219 22.8643 41.8484 23.3443 42.3284C23.3473 42.3313 23.3504 42.3344 23.3535 42.3375L23.3628 42.3467C23.8418 42.823 24.4691 43.0942 25.1399 43.1239L25.8494 43.8336C26.4291 44.4132 27.2016 44.7325 28.0245 44.7325C28.9715 44.7325 29.8516 44.3067 30.4391 43.5643C30.7586 43.1608 30.9597 42.6976 31.0453 42.2178L31.491 42.6636C32.0796 43.2521 32.8927 43.5899 33.7217 43.5899C34.4062 43.5899 35.0756 43.3584 35.6068 42.9378C36.1969 42.4709 36.5926 41.8054 36.7254 41.0732C37.2945 41.56 38.0302 41.8354 38.7787 41.8354C39.463 41.8354 40.1326 41.6038 40.6638 41.1833C41.3521 40.6386 41.776 39.8238 41.8268 38.948C41.8741 38.1342 41.5971 37.337 41.0629 36.7319C41.557 36.6448 42.0254 36.4372 42.4183 36.1263C43.1067 35.5816 43.5305 34.7668 43.5813 33.891C43.6322 33.0137 43.3064 32.1555 42.6875 31.5366L41.5443 30.3934C41.586 30.352 41.6259 30.3086 41.6626 30.2618C43.8033 27.534 44.9561 25.5046 45.3811 23.7091C45.4145 23.6505 45.4439 23.5894 45.4689 23.5264L45.705 22.9315C46.1926 22.1055 46.0701 21.0306 45.3785 20.3374ZM16.6907 32.9728C16.3737 32.9728 16.0569 32.8518 15.8149 32.61L15.8018 32.5971C15.3184 32.1135 15.3184 31.3293 15.8018 30.8458L16.7706 29.877C17.0124 29.6351 17.3292 29.5141 17.6463 29.5141C17.9633 29.5141 18.2802 29.6351 18.5222 29.877L18.535 29.89C19.0188 30.3735 19.0188 31.1578 18.535 31.6413L17.5664 32.61C17.3245 32.8517 17.0076 32.9728 16.6907 32.9728ZM20.202 35.6412C19.9601 35.8831 19.6432 36.004 19.3261 36.004C19.0092 36.004 18.6923 35.8831 18.4503 35.6412L18.4374 35.6282C17.9537 35.1445 17.9537 34.3605 18.4374 33.8768L20.7294 31.5848C20.9714 31.3429 21.2883 31.222 21.6054 31.222C21.9224 31.222 22.2394 31.3429 22.4813 31.5848L22.4942 31.5977C22.9778 32.0814 22.9778 32.8656 22.4942 33.3491L20.202 35.6412ZM23.1748 38.4718C22.9332 38.7135 22.6163 38.8344 22.2992 38.8344C21.9822 38.8344 21.6653 38.7135 21.4235 38.4718L21.4104 38.4587C20.9267 37.9751 20.9267 37.1909 21.4104 36.7072L22.8937 35.2237C23.1356 34.9819 23.4524 34.8611 23.7694 34.8611C24.0863 34.8611 24.4033 34.9819 24.6453 35.2237L24.6584 35.2368C25.1418 35.7203 25.1418 36.5047 24.6584 36.9882L23.1748 38.4718ZM25.2613 41.6754C24.9444 41.6754 24.6276 41.5544 24.3857 41.3126L24.3726 41.2998C23.8888 40.8161 23.8888 40.0318 24.3726 39.5482L25.0473 38.8735C25.2892 38.6317 25.6061 38.5108 25.9231 38.5108C26.24 38.5108 26.5571 38.6317 26.799 38.8735L26.812 38.8866C27.2954 39.3703 27.2954 40.1544 26.812 40.638L26.1372 41.3126C25.8951 41.5544 25.5782 41.6754 25.2613 41.6754ZM29.299 42.6618C28.9737 43.0727 28.4992 43.2782 28.0246 43.2782C27.6089 43.2782 27.1932 43.1205 26.8779 42.8053L26.7526 42.6799C26.8995 42.5818 27.0377 42.4687 27.1654 42.341L27.8399 41.6665C28.315 41.1913 28.5728 40.5811 28.6179 39.9583L29.1366 40.4769C29.7243 41.0644 29.8148 42.0101 29.299 42.6618ZM41.6592 32.5648C42.3346 33.2401 42.2868 34.3756 41.5158 34.9859C41.227 35.2145 40.8808 35.3239 40.5333 35.3239C40.0965 35.3239 39.6582 35.1508 39.3309 34.8235L33.4509 28.9434C33.2982 28.7907 33.0982 28.7144 32.8981 28.7144C32.6982 28.7144 32.498 28.7907 32.3454 28.9434C32.0362 29.2525 32.0362 29.7536 32.3454 30.0625L39.9046 37.6218C40.5798 38.2971 40.5321 39.4326 39.7612 40.0429C39.4724 40.2714 39.1261 40.3809 38.7787 40.3809C38.3419 40.3809 37.9035 40.2077 37.5763 39.8805L30.0525 32.3567C29.8979 32.2021 29.6951 32.1246 29.4923 32.1246C29.2895 32.1246 29.0868 32.2021 28.932 32.3567C28.6271 32.6616 28.6271 33.156 28.932 33.4608L34.8475 39.3763C35.5228 40.0516 35.4751 41.1871 34.7042 41.7973C34.4154 42.0259 34.0691 42.1353 33.7217 42.1353C33.2849 42.1353 32.8466 41.9622 32.5193 41.6349L26.4063 35.5218C26.2987 35.0402 26.0606 34.5822 25.6867 34.2082L25.6735 34.195C25.2515 33.7732 24.7137 33.5116 24.1327 33.4336C24.2482 33.1308 24.3111 32.8072 24.3111 32.4733C24.3111 31.7542 24.0311 31.0778 23.5225 30.5693C23.5211 30.5678 23.5196 30.5663 23.5182 30.5649L23.5068 30.5536C22.9985 30.0465 22.3232 29.7674 21.6053 29.7674C21.1296 29.7674 20.6739 29.8923 20.272 30.1224C20.157 29.6518 19.919 29.2189 19.5686 28.8669L19.5599 28.858C19.5567 28.8549 19.5536 28.8516 19.5504 28.8484C19.0418 28.3398 18.3655 28.0596 17.6461 28.0596C16.9266 28.0596 16.2504 28.3399 15.7418 28.8488L15.7376 28.853C15.6437 28.5607 15.5639 28.2711 15.5018 27.9852C15.4798 27.8852 15.4378 27.7911 15.3753 27.7099L11.593 23.4872C11.3851 23.2165 11.4098 22.8335 11.6508 22.5918L20.0813 14.1482C20.2137 14.0154 20.3881 13.9484 20.5634 13.9484C20.721 13.9484 20.879 14.0028 21.0071 14.1129L21.0738 14.1756C20.5093 14.731 20.1582 15.5027 20.1582 16.3551C20.1582 18.0389 21.5249 19.4091 23.2072 19.415L28.5776 19.4831L41.6592 32.5648ZM44.4067 22.2598L44.117 22.9898C44.0546 23.071 44.0125 23.165 43.9906 23.2651C43.5809 25.1449 42.137 27.3014 40.5185 29.3637C38.4594 27.3047 29.1958 18.0364 29.1958 18.0364L23.2181 17.9606C22.3351 17.9606 21.6125 17.238 21.6125 16.355C21.6125 15.472 22.3351 14.7496 23.2181 14.7496L34.4264 13.208C34.4276 13.2079 34.4287 13.2073 34.4295 13.2065L34.9926 12.8854C35.1207 12.7752 35.2786 12.7208 35.4363 12.7208C35.6113 12.7208 35.7859 12.7879 35.9184 12.9206L44.3488 21.3643C44.59 21.6061 44.6147 21.989 44.4067 22.2598Z" fill="black"/>
</svg>
