<svg width="36" height="36" viewBox="0 0 36 36" fill="none" xmlns="http://www.w3.org/2000/svg">
<path d="M0 36L3.096 26.7126C1.52503 24.0703 0.62069 20.9868 0.62069 17.6897C0.62069 7.92 8.54069 0 18.3103 0C28.08 0 36 7.92 36 17.6897C36 27.4593 28.08 35.3793 18.3103 35.3793C15.3379 35.3793 12.5386 34.6426 10.08 33.3478L0 36Z" fill="#2CB742"/>
<path d="M29.5962 23.5769C28.7794 22.0333 25.7672 20.268 25.7672 20.268C25.0857 19.8795 24.2633 19.836 23.8747 20.5287C23.8747 20.5287 22.8959 21.7024 22.647 21.8713C21.5099 22.6415 20.4566 22.6117 19.3933 21.5485L16.9224 19.0775L14.4514 16.6066C13.3882 15.5433 13.3584 14.49 14.1286 13.3529C14.2975 13.104 15.4712 12.1252 15.4712 12.1252C16.1639 11.736 16.1204 10.9142 15.7319 10.2327C15.7319 10.2327 13.9666 7.2205 12.423 6.40368C11.7663 6.05609 10.96 6.17774 10.4349 6.70285L9.34374 7.79402C5.88215 11.2556 7.58656 15.1635 11.0482 18.6251L14.2118 21.7887L17.3755 24.9524C20.837 28.4139 24.7449 30.1184 28.2065 26.6568L29.2977 25.5656C29.8228 25.0393 29.9438 24.233 29.5962 23.5769Z" fill="white"/>
</svg>
